<svg width="69" height="69" viewBox="0 0 69 69" fill="none" xmlns="http://www.w3.org/2000/svg">
<g id="noun-add-2366922 1">
<g id="Group">
<g id="Group_2">
<g id="Group_3">
<path id="Vector" d="M60.513 46.5055C58.719 47.1955 55.752 47.9545 52.509 48.6445C51.336 50.5075 49.266 52.0945 45.954 52.7155C45.195 52.8535 44.298 52.9225 43.401 52.9915C41.124 53.0605 38.433 52.8535 35.397 52.5775C35.19 52.5775 34.983 52.5775 34.776 52.5085C34.086 52.4395 33.396 51.8875 33.327 51.1975C33.258 50.3005 34.017 49.5415 34.914 49.6105C35.121 49.6105 35.397 49.6795 35.604 49.6795C39.468 50.0245 43.125 50.3005 45.402 49.8865C49.611 49.1275 50.853 46.5055 50.577 44.3665C50.37 42.5725 49.059 40.9165 46.92 41.0545C43.953 41.2615 40.434 41.0545 36.984 40.7785C33.051 40.5025 29.049 40.3645 26.22 40.7095C23.046 41.0545 16.629 43.4005 10.902 47.2645C8.142 49.1275 5.037 51.4045 3.174 52.7845C2.208 53.4745 2.001 54.8545 2.76 55.7515L11.04 66.4465C11.73 67.3435 13.041 67.5505 14.007 66.7915L17.043 64.4455C17.733 63.8935 18.699 63.6865 19.596 63.9625C25.185 65.7565 31.119 66.9295 34.983 67.0675C43.47 67.6195 59.754 57.5455 64.377 54.3715C69.069 51.1285 65.688 44.5735 60.513 46.5055Z" fill="#4E888F"/>
<path id="Vector_2" d="M43.539 35.3966C52.785 35.3966 60.375 27.8756 60.375 18.5606C60.375 9.24561 52.785 1.72461 43.539 1.72461C34.293 1.72461 26.703 9.24561 26.703 18.5606C26.703 27.8756 34.224 35.3966 43.539 35.3966ZM38.088 16.3526H41.331V13.1096C41.331 11.8676 42.297 10.9016 43.539 10.9016C44.781 10.9016 45.747 11.8676 45.747 13.1096V16.3526H48.99C50.232 16.3526 51.198 17.3186 51.198 18.5606C51.198 19.8026 50.232 20.7686 48.99 20.7686H45.747V24.0116C45.747 25.2536 44.781 26.2196 43.539 26.2196C42.297 26.2196 41.331 25.2536 41.331 24.0116V20.7686H38.088C36.846 20.7686 35.88 19.8026 35.88 18.5606C35.88 17.3186 36.846 16.3526 38.088 16.3526Z" fill="#4E888F"/>
</g>
</g>
</g>
</g>
</svg>
