<svg width="101" height="99" viewBox="0 0 101 99" fill="none" xmlns="http://www.w3.org/2000/svg">
<g id="noun-branding-strategy-5870003 1">
<path id="Vector" fill-rule="evenodd" clip-rule="evenodd" d="M4.42168 4.60742H96.5773C97.0447 4.6077 97.4929 4.79353 97.8238 5.12417C98.1546 5.45482 98.341 5.9033 98.3421 6.37133V21.0883H2.6579V6.37133C2.65902 5.90349 2.84528 5.45516 3.17587 5.12455C3.50646 4.79394 3.95443 4.60798 4.42168 4.60742ZM78.7587 96.522H22.2402V90.8971H78.7587V96.522ZM72.6902 88.5381H28.3087V82.9143H72.6902V88.5413V88.5381ZM34.862 80.5543C35.0922 76.7695 35.786 73.0273 36.9277 69.412C41.6967 65.8807 45.9298 61.6766 49.4953 56.9305C49.6129 56.7768 49.6908 56.5964 49.7221 56.4053C49.7534 56.2143 49.7371 56.0184 49.6748 55.8351C49.6124 55.6519 49.5059 55.4868 49.3646 55.3546C49.2234 55.2224 49.0517 55.1271 48.8649 55.0772L41.9171 53.2143C41.7364 53.1654 41.5465 53.1606 41.3635 53.2005C41.1806 53.2403 41.0098 53.3235 40.8657 53.4432L34.7706 58.4613L33.6086 57.2371L34.3793 56.6931C34.5057 56.6039 34.6133 56.4907 34.6959 56.3599C34.7786 56.2291 34.8347 56.0832 34.861 55.9307C34.8874 55.7782 34.8835 55.622 34.8495 55.471C34.8156 55.3199 34.7523 55.1771 34.6632 55.0506C34.5741 54.9241 34.461 54.8164 34.3304 54.7336C34.1997 54.6509 34.0541 54.5947 33.9018 54.5683C33.7494 54.5419 33.5934 54.5458 33.4426 54.5798C33.2918 54.6138 33.1491 54.6772 33.0228 54.7664L31.9745 55.5041L30.9113 54.3885L30.5498 50.2475L43.3768 37.6511C43.457 37.5711 43.5254 37.48 43.5799 37.3807C50.9061 38.6421 56.106 41.7686 60.532 52.4808C60.6206 52.6967 60.7713 52.8814 60.965 53.0114C61.1586 53.1414 61.3864 53.2109 61.6196 53.2111C61.774 53.2115 61.927 53.1808 62.0693 53.1206C62.2122 53.0616 62.3421 52.9749 62.4515 52.8656C62.561 52.7563 62.6478 52.6264 62.707 52.4834C62.7663 52.3405 62.7968 52.1872 62.7968 52.0324C62.7968 51.8776 62.7664 51.7243 62.7072 51.5813C58.4173 41.197 53.2153 36.6196 43.7309 35.0228V31.4215C48.5614 31.5193 53.2456 33.0992 57.1508 35.9477C61.056 38.7962 63.9941 42.7761 65.5681 47.3499C65.5702 47.3576 65.5731 47.3651 65.5766 47.3722C68.3395 54.9672 68.1448 63.3253 65.0312 70.7831C63.9236 72.1269 63.2097 73.752 62.9689 75.4777C62.7281 77.2034 62.9698 78.9621 63.6672 80.5585L34.862 80.5543ZM96.5773 76.1748C97.0448 76.1743 97.493 75.9882 97.8238 75.6574C98.1546 75.3266 98.341 74.878 98.3421 74.4099V23.4419H2.6579V74.4099C2.65846 74.8782 2.84443 75.3272 3.17505 75.6584C3.50567 75.9896 3.95397 76.1761 4.42168 76.177H32.9855C33.3273 73.4823 33.9491 70.8308 34.8408 68.2655C34.9216 68.0459 35.0673 67.8561 35.2586 67.7215C39.4876 64.6364 43.2808 60.9933 46.5355 56.8911L41.8884 55.6446L35.4138 60.9778C35.1841 61.1675 34.8913 61.2631 34.5941 61.2455C34.2969 61.228 34.0174 61.0985 33.8116 60.8831L28.9211 55.7116C28.7379 55.5173 28.6256 55.2668 28.6021 55.0005L28.1577 49.9015C28.1425 49.728 28.1657 49.5533 28.2258 49.3899C28.2859 49.2264 28.3814 49.0784 28.5054 48.9562L41.3696 36.314V30.2559C41.3697 29.9503 41.4882 29.6567 41.7002 29.4369C41.9122 29.2171 42.2011 29.0882 42.5061 29.0775C48.0387 28.8916 53.4843 30.4929 58.0379 33.6449C62.5915 36.7968 66.0114 41.3321 67.7923 46.5802C70.7744 54.7882 70.5385 63.8228 67.132 71.8635C67.0842 71.975 67.0201 72.0787 66.9417 72.1712C65.9768 73.2967 65.3889 74.6971 65.2609 76.1748H96.5773ZM12.3029 16.4257C13.0096 16.4257 13.7004 16.2158 14.2881 15.8227C14.8757 15.4296 15.3337 14.8708 15.6041 14.217C15.8746 13.5633 15.9454 12.8439 15.8075 12.1498C15.6696 11.4558 15.3293 10.8183 14.8296 10.3179C14.3298 9.81756 13.6931 9.4768 13 9.33875C12.3068 9.2007 11.5884 9.27155 10.9354 9.54235C10.2825 9.81315 9.72443 10.2717 9.3318 10.8601C8.93916 11.4485 8.72959 12.1402 8.72959 12.8478C8.731 13.7963 9.10792 14.7055 9.77773 15.3762C10.4475 16.0469 11.3556 16.4243 12.3029 16.4257ZM12.3029 11.6236C12.0616 11.6236 11.8257 11.6953 11.625 11.8295C11.4243 11.9636 11.2679 12.1544 11.1755 12.3776C11.083 12.6007 11.0587 12.8463 11.1057 13.0833C11.1526 13.3203 11.2686 13.5381 11.4391 13.7091C11.6096 13.8801 11.8268 13.9966 12.0635 14.044C12.3001 14.0914 12.5454 14.0675 12.7685 13.9754C12.9915 13.8832 13.1823 13.7269 13.3166 13.5262C13.451 13.3255 13.523 13.0895 13.5234 12.8478C13.5234 12.5235 13.3949 12.2125 13.166 11.983C12.9372 11.7534 12.6268 11.6242 12.3029 11.6236ZM21.5694 16.4257C22.2761 16.4257 22.9669 16.2158 23.5546 15.8227C24.1422 15.4296 24.6002 14.8708 24.8706 14.217C25.1411 13.5633 25.2118 12.8439 25.074 12.1498C24.9361 11.4558 24.5958 10.8183 24.096 10.3179C23.5963 9.81756 22.9596 9.4768 22.2665 9.33875C21.5733 9.2007 20.8548 9.27155 20.2019 9.54235C19.549 9.81315 18.9909 10.2717 18.5983 10.8601C18.2056 11.4485 17.9961 12.1402 17.9961 12.8478C17.9972 13.7964 18.374 14.7058 19.0439 15.3765C19.7138 16.0472 20.622 16.4246 21.5694 16.4257ZM21.5694 11.6236C21.328 11.6234 21.092 11.6949 20.8912 11.8289C20.6904 11.963 20.5338 12.1537 20.4412 12.3768C20.3486 12.6 20.3242 12.8456 20.371 13.0827C20.4178 13.3198 20.5337 13.5376 20.7041 13.7087C20.8746 13.8798 21.0918 13.9965 21.3285 14.044C21.5651 14.0914 21.8105 14.0676 22.0336 13.9755C22.2568 13.8833 22.4476 13.727 22.582 13.5263C22.7164 13.3256 22.7884 13.0895 22.7888 12.8478C22.7888 12.5237 22.6604 12.2128 22.4318 11.9833C22.2032 11.7538 21.8931 11.6245 21.5694 11.6236ZM30.8316 16.4257C31.5383 16.4257 32.2292 16.2158 32.8168 15.8227C33.4044 15.4296 33.8624 14.8708 34.1329 14.217C34.4033 13.5633 34.4741 12.8439 34.3362 12.1498C34.1983 11.4558 33.858 10.8183 33.3583 10.3179C32.8585 9.81756 32.2218 9.4768 31.5287 9.33875C30.8355 9.2007 30.1171 9.27155 29.4641 9.54235C28.8112 9.81315 28.2532 10.2717 27.8605 10.8601C27.4679 11.4485 27.2583 12.1402 27.2583 12.8478C27.2597 13.7963 27.6366 14.7055 28.3064 15.3762C28.9763 16.0469 29.8843 16.4243 30.8316 16.4257ZM30.8316 11.6236C30.5903 11.6236 30.3544 11.6953 30.1537 11.8295C29.9531 11.9636 29.7966 12.1544 29.7042 12.3776C29.6117 12.6007 29.5875 12.8463 29.6344 13.0833C29.6813 13.3203 29.7973 13.5381 29.9678 13.7091C30.1383 13.8801 30.3556 13.9966 30.5922 14.044C30.8288 14.0914 31.0741 14.0675 31.2972 13.9754C31.5202 13.8832 31.711 13.7269 31.8454 13.5262C31.9797 13.3255 32.0517 13.0895 32.0521 12.8478C32.0521 12.5235 31.9236 12.2125 31.6947 11.983C31.4659 11.7534 31.1555 11.6242 30.8316 11.6236ZM55.6457 16.6333H91.0935C91.4043 16.6333 91.7024 16.5101 91.9227 16.2907C92.143 16.0713 92.2677 15.7734 92.2694 15.4623V10.2462C92.2702 10.0909 92.2404 9.93692 92.1817 9.79316C92.1231 9.6494 92.0366 9.51865 91.9274 9.40839C91.8182 9.29813 91.6883 9.21053 91.5452 9.15062C91.4021 9.0907 91.2486 9.05965 91.0935 9.05923H55.6457C55.3337 9.05979 55.0347 9.18413 54.8141 9.405C54.5935 9.62588 54.4693 9.92528 54.4688 10.2376V15.4538C54.4705 15.7651 54.5952 16.0631 54.8158 16.2825C55.0364 16.502 55.3348 16.625 55.6457 16.6247V16.6333ZM56.8215 11.4171V14.2796H89.9166V11.4171H56.8215Z" fill="#011214"/>
</g>
</svg>
