<svg width="100" height="100" viewBox="0 0 100 100" fill="none" xmlns="http://www.w3.org/2000/svg">
<g id="noun-carbon-neutrality-5454622 1">
<g id="Group">
<g id="Group_2">
<g id="Group_3">
<path id="Vector" d="M76.2 23.6004H76.1C72.6 12.2004 62.1 4.40039 50 4.40039C36.4 4.40039 24.9 14.5004 23 27.7004C22.6 27.7004 22.2 27.7004 21.8 27.7004C11.2 27.7004 2.5 36.3004 2.5 47.0004C2.5 57.7004 11.1 66.3004 21.8 66.3004H25.7C25.6 65.4004 25.7 64.6004 25.7 63.7004C25.8 63.1004 25.8 62.6004 25.9 62.0004H21.7C13.4 62.0004 6.7 55.3004 6.7 47.0004C6.7 38.7004 13.4 32.0004 21.7 32.0004C22.6 32.0004 23.5 32.1004 24.4 32.3004C25 32.4004 25.6 32.3004 26.1 31.9004C26.6 31.5004 26.9 31.0004 26.9 30.3004C27.8 18.1004 37.9 8.60039 50 8.60039C60.7 8.60039 69.9 15.9004 72.4 26.3004C72.6 27.3004 73.6 28.0004 74.7 27.9004C75.3 27.8004 75.8 27.8004 76.2 27.8004C85.6 27.8004 93.2 35.4004 93.2 44.8004C93.2 54.2004 85.6 61.8004 76.2 61.8004H72.4C72.1 63.2004 71.8 64.7004 71.5 66.1004H76.2C87.9 66.1004 97.5 56.6004 97.5 44.8004C97.5 33.2004 88 23.6004 76.2 23.6004Z" fill="#011214"/>
<path id="Vector_2" d="M64.6997 37.4001C51.7997 50.5001 31.7997 50.1001 30.4997 64.0001C30.1997 67.1001 30.9997 69.5001 32.9997 72.0001C40.5997 64.5001 48.5997 60.2001 51.5997 58.7001C52.1997 58.4001 52.8997 58.7001 53.0997 59.4001C53.1997 59.9001 52.9997 60.4001 52.5997 60.6001C40.9997 67.7001 34.5997 75.0001 27.5997 92.3001C27.0997 93.5001 27.5997 95.0001 28.7997 95.5001C29.0997 95.6001 29.3997 95.7001 29.6997 95.7001C30.5997 95.7001 31.4997 95.1001 31.8997 94.2001C33.5997 90.1001 37.8997 81.2001 40.0997 78.2001C46.1997 81.5001 53.7997 82.4001 59.0997 78.8001C67.9997 72.8001 69.6997 51.6001 69.0997 39.1001C68.9997 36.9001 66.2997 35.8001 64.6997 37.4001Z" fill="#011214"/>
</g>
</g>
</g>
</g>
</svg>
