<svg xmlns="http://www.w3.org/2000/svg" width="93" height="68" fill="none" viewBox="0 0 93 68">
  <path fill="#011214" fill-rule="evenodd" d="M64.28 13.6c8.424 0 15.563 5.854 17.396 13.8C88.11 28.51 93 34.087 93 40.8c0 7.511-6.123 13.6-13.677 13.6h-5.47a2.728 2.728 0 0 1-2.735-2.72 2.728 2.728 0 0 1 2.735-2.72h5.47c4.533 0 8.206-3.653 8.206-8.16s-3.673-8.16-8.206-8.16a2.73 2.73 0 0 1-2.722-2.454c-.62-6.296-5.945-11.146-12.322-11.146-1.15 0-2.277.156-3.36.461a2.739 2.739 0 0 1-3.308-1.668C54.84 10.444 47.726 5.44 39.66 5.44c-8.79 0-16.392 5.943-18.546 14.29a2.732 2.732 0 0 1-2.538 2.041C11.268 22.07 5.47 28.06 5.47 35.36c0 7.511 6.123 13.6 13.676 13.6a2.728 2.728 0 0 1 2.735 2.72 2.728 2.728 0 0 1-2.735 2.72C8.572 54.4 0 45.876 0 35.36c0-9.553 7.09-17.504 16.376-18.842C19.74 6.768 29.022 0 39.662 0c9.559 0 18.082 5.468 22.143 13.77a18.01 18.01 0 0 1 2.474-.17Z" clip-rule="evenodd"/>
  <path stroke="#011214" stroke-width="3" d="M60.044 52.36c0 7.801-6.362 14.14-14.227 14.14-7.866 0-14.228-6.339-14.228-14.14 0-7.802 6.362-14.14 14.228-14.14 7.865 0 14.227 6.338 14.227 14.14Z"/>
  <path fill="#011214" d="M47.107 46.995v1.729h-.914v-1.729h.914Zm-.11 9.569v1.576h-.915v-1.577h.914Zm.644-1.922a1.21 1.21 0 0 0-.123-.569 1.11 1.11 0 0 0-.387-.416 3.375 3.375 0 0 0-.715-.351 10.094 10.094 0 0 1-1.342-.621 2.623 2.623 0 0 1-.896-.827c-.215-.332-.322-.752-.322-1.26 0-.484.115-.904.345-1.26a2.26 2.26 0 0 1 .955-.82c.41-.195.887-.292 1.43-.292.414 0 .789.062 1.125.187.336.121.625.3.867.54.242.233.428.52.557.86.129.34.193.729.193 1.166h-1.681a2.29 2.29 0 0 0-.077-.62c-.05-.18-.125-.33-.222-.452a.87.87 0 0 0-.34-.27 1.019 1.019 0 0 0-.44-.093c-.238 0-.433.047-.586.14a.831.831 0 0 0-.334.381 1.38 1.38 0 0 0-.1.54c0 .199.036.373.106.521.074.148.201.285.381.41.18.121.426.246.738.375.508.195.954.406 1.336.633.383.227.682.504.897.832.215.328.322.746.322 1.254 0 .504-.117.933-.351 1.289a2.246 2.246 0 0 1-.985.809c-.422.183-.91.275-1.465.275-.359 0-.717-.047-1.072-.14a2.889 2.889 0 0 1-.967-.47c-.289-.214-.52-.5-.691-.855-.172-.36-.258-.8-.258-1.324h1.688c0 .285.037.523.11.715.075.187.173.338.294.45.125.11.266.188.422.235.156.047.314.07.474.07.25 0 .455-.044.616-.134a.885.885 0 0 0 .369-.37c.086-.16.129-.34.129-.538ZM45.132 20.58c2.263 0 4.103 2.135 4.103 4.76 0 2.623-1.84 4.76-4.103 4.76-2.262 0-4.103-2.136-4.103-4.76 0-2.626 1.84-4.76 4.103-4.76Zm0 8.275c1.59 0 2.884-1.575 2.884-3.516 0-1.94-1.293-3.516-2.884-3.516-1.59 0-2.884 1.577-2.884 3.516s1.294 3.516 2.884 3.516Zm-8.258 0a2.501 2.501 0 0 0 1.768-.764.6.6 0 0 1 .431-.176.585.585 0 0 1 .424.194.626.626 0 0 1 .165.447.64.64 0 0 1-.191.436 3.71 3.71 0 0 1-2.597 1.107c-2.233 0-4.05-2.135-4.05-4.76s1.817-4.76 4.05-4.76a3.71 3.71 0 0 1 2.596 1.107.622.622 0 0 1 .192.436.643.643 0 0 1-.165.447.602.602 0 0 1-.424.194.585.585 0 0 1-.43-.176 2.502 2.502 0 0 0-1.77-.764c-1.57 0-2.846 1.577-2.846 3.516s1.277 3.516 2.847 3.516Zm17.832.695c0 .145-.06.285-.169.388a.593.593 0 0 1-.408.161h-2.785a.739.739 0 0 1-.38-.105.69.69 0 0 1-.264-.283.649.649 0 0 1 .094-.72l2.044-2.37a.536.536 0 0 0 .071-.582.47.47 0 0 0-.179-.203.505.505 0 0 0-.266-.077.725.725 0 0 0-.499.197.657.657 0 0 0-.207.475c0 .146-.06.286-.169.39a.593.593 0 0 1-.408.16.593.593 0 0 1-.409-.16.537.537 0 0 1-.169-.39c.001-.235.051-.467.147-.683a1.78 1.78 0 0 1 .411-.578 1.88 1.88 0 0 1 .613-.382c.23-.088.474-.131.72-.129a1.7 1.7 0 0 1 .872.256c.259.163.464.392.592.66.14.282.193.595.153.904a1.6 1.6 0 0 1-.38.84l-1.449 1.68h1.849c.152 0 .299.059.407.162a.537.537 0 0 1 .168.388Z"/>
</svg>
