<svg width="100" height="100" viewBox="0 0 100 100" fill="none" xmlns="http://www.w3.org/2000/svg">
<g id="noun-commitment-4383431 1" clip-path="url(#clip0_777_25717)">
<g id="Group">
<g id="Group_2">
<g id="Group_3">
<g id="Group_4">
<path id="Vector" d="M52.2448 28.6426H22.104C21.5138 28.6426 21.0356 28.1642 21.0356 27.5742C21.0356 26.9843 21.5138 26.5059 22.104 26.5059H52.2448C52.835 26.5059 53.3132 26.9843 53.3132 27.5742C53.3132 28.1642 52.835 28.6426 52.2448 28.6426Z" fill="#011214"/>
</g>
<g id="Group_5">
<path id="Vector_2" d="M52.2443 37.0196H22.1035C21.5134 37.0196 21.0352 36.5411 21.0352 35.9512C21.0352 35.3612 21.5134 34.8828 22.1035 34.8828H52.2443C52.8345 34.8828 53.3127 35.3612 53.3127 35.9512C53.3127 36.5411 52.8345 37.0196 52.2443 37.0196Z" fill="#011214"/>
</g>
<g id="Group_6">
<path id="Vector_3" d="M32.547 45.3985H22.104C21.5138 45.3985 21.0356 44.9201 21.0356 44.3301C21.0356 43.7401 21.5138 43.2617 22.104 43.2617H32.547C33.1371 43.2617 33.6153 43.7401 33.6153 44.3301C33.6153 44.9201 33.1371 45.3985 32.547 45.3985Z" fill="#011214"/>
</g>
<g id="Group_7">
<path id="Vector_4" d="M22.217 53.7735H9.54543C8.95526 53.7735 8.47705 53.2951 8.47705 52.7051C8.47705 52.1151 8.95526 51.6367 9.54543 51.6367H22.217C22.8072 51.6367 23.2854 52.1151 23.2854 52.7051C23.2854 53.2951 22.807 53.7735 22.217 53.7735Z" fill="#011214"/>
</g>
<g id="Group_8">
<path id="Vector_5" d="M17.735 62.1524H9.54543C8.95526 62.1524 8.47705 61.674 8.47705 61.084C8.47705 60.494 8.95526 60.0156 9.54543 60.0156H17.735C18.3251 60.0156 18.8033 60.494 18.8033 61.084C18.8033 61.674 18.3251 62.1524 17.735 62.1524Z" fill="#011214"/>
</g>
<path id="Vector_6" d="M16.8708 73.3516C14.8678 73.3516 13.2383 74.981 13.2383 76.984C13.2383 78.987 14.8678 80.6165 16.8708 80.6165C18.8738 80.6165 20.5032 78.987 20.5032 76.984C20.5032 74.981 18.8738 73.3516 16.8708 73.3516Z" fill="#011214"/>
</g>
</g>
<path id="Vector_7" d="M79.7169 8.83346L75.1998 0.556327C74.8009 -0.175511 73.7156 -0.171238 73.3212 0.562096L68.8639 8.85098C68.7801 9.00654 68.7363 9.18047 68.7363 9.35697V21.2123C68.7363 21.8023 69.2145 22.2807 69.8047 22.2807C70.3949 22.2807 70.8731 21.8023 70.8731 21.2123V10.4253L77.7107 10.4245V26.8738H69.8047C69.2145 26.8738 68.7363 27.3523 68.7363 27.9422V30.079C68.7363 33.1422 71.2284 35.6345 74.2919 35.6345C77.3553 35.6345 79.8474 33.1422 79.8474 30.079V9.34521C79.8477 9.16637 79.8028 8.99051 79.7169 8.83346ZM74.269 3.31103L76.9848 8.28774L71.5923 8.28838L74.269 3.31103Z" fill="#011214"/>
<g id="Group_9">
<path id="Vector_8" d="M59.6755 46.6821C60.4426 46.6821 61.0644 46.0602 61.0644 45.2932C61.0644 44.5261 60.4426 43.9043 59.6755 43.9043C58.9084 43.9043 58.2866 44.5261 58.2866 45.2932C58.2866 46.0602 58.9084 46.6821 59.6755 46.6821Z" fill="#011214"/>
</g>
<g id="Group_10">
<path id="Vector_9" d="M36.8318 94.3364C37.5988 94.3364 38.2206 93.7145 38.2206 92.9475C38.2206 92.1804 37.5988 91.5586 36.8318 91.5586C36.0647 91.5586 35.4429 92.1804 35.4429 92.9475C35.4429 93.7145 36.0647 94.3364 36.8318 94.3364Z" fill="#011214"/>
</g>
<path id="Vector_10" d="M99.6859 61.4427L77.6262 39.4446C77.2093 39.0288 76.5346 39.029 76.1175 39.4446L70.9865 44.5625C70.5677 45.067 70.5677 45.5715 70.9865 46.076L71.3512 46.4397L65.1344 50.7493C62.4615 51.2824 59.8685 51.7435 57.5237 53.2591L55.1995 52.7957L48.8081 48.6824L49.366 48.126C49.7846 47.6215 49.7846 47.117 49.366 46.6125L44.2348 41.4946C43.8179 41.0786 43.1431 41.0788 42.726 41.4946L23.3908 60.7769C22.972 61.2813 22.972 61.7858 23.3908 62.2903L28.5217 67.4083C29.0247 67.8241 29.5275 67.8241 30.0305 67.4083L47.2591 50.2271L54.2138 54.7027C54.3262 54.7752 54.4514 54.8258 54.5831 54.8519L55.3427 55.0034C55.3138 55.0316 47.0444 63.2662 47.0444 63.2662C45.8974 64.4089 45.8942 66.3536 47.0433 67.4993C50.1194 70.567 55.1147 70.5615 58.1786 67.4875L59.3495 66.314C62.7679 66.873 66.2985 66.1489 69.2205 64.2927L82.132 77.1465C83.1976 78.2091 83.2 80.0157 82.132 81.0809C81.0506 82.1591 79.2918 82.1593 78.2104 81.0809L72.9061 75.7912C72.4884 75.3745 71.8117 75.3756 71.3952 75.7935C70.9788 76.2115 70.9799 76.888 71.3976 77.3048L78.0472 83.9363C79.1126 84.9987 79.1149 86.8059 78.0472 87.8707C76.9658 88.9489 75.2068 88.9487 74.1254 87.8707L66.8797 80.6446C66.4619 80.2279 65.7852 80.229 65.3688 80.6469C64.9523 81.0649 64.9534 81.7416 65.3711 82.1583L71.2546 88.0258C72.3055 89.0903 72.3008 90.8856 71.239 91.9444C70.1581 93.0228 68.3987 93.0228 67.3173 91.9444L60.8049 85.4497C60.3869 85.0331 59.7102 85.0341 59.294 85.4521C58.8775 85.87 58.8786 86.5465 59.2963 86.9634L63.069 90.7258C64.1346 91.7884 64.1369 93.595 63.069 94.6602C62.3933 95.3341 61.4403 95.598 60.545 95.4108C61.0487 93.6331 60.4929 91.6741 59.1277 90.4292C58.169 89.5551 56.9585 89.1322 55.7544 89.1493C56.1318 87.5138 55.6158 85.7542 54.4166 84.5833C53.3307 83.5256 51.8414 82.9796 50.3245 83.1719C50.4681 81.6993 49.9307 80.2044 48.8692 79.1685C47.7611 78.0867 46.2568 77.6425 44.8188 77.8241C44.9711 76.3448 44.4301 74.8354 43.3645 73.795C41.8198 72.2867 39.5032 72.0089 37.6715 72.9525C36.9111 72.0593 36.1711 71.1407 35.466 70.2098C35.1096 69.7393 34.4397 69.6469 33.9692 70.0031C33.4989 70.3593 33.4064 71.0296 33.7628 71.5002C34.4794 72.4465 35.2311 73.3811 36.0034 74.2901L33.9967 76.2912C32.1021 78.1805 32.1017 81.3628 33.9967 83.2527C35.0369 84.2899 36.5747 84.8217 38.0333 84.6491C37.9401 86.1581 38.347 87.5907 39.4433 88.6843C40.4794 89.7175 42.0034 90.2452 43.4557 90.0835C43.1341 92.9408 45.4788 95.5709 48.3598 95.5709C48.866 95.5709 49.3707 95.4884 49.8568 95.3318C49.9117 96.5837 50.4309 97.7482 51.3326 98.6286C53.2232 100.474 56.363 100.457 58.2343 98.5916C58.2343 98.5916 59.4222 97.4021 59.4867 97.3299C61.2356 97.9446 63.2632 97.485 64.5777 96.1741C65.2948 95.4591 65.7641 94.5617 65.942 93.5863C67.8636 95.3647 70.8784 95.3224 72.7478 93.4583C73.5715 92.6365 74.0683 91.5745 74.172 90.4298C75.9581 91.1824 78.1032 90.8335 79.5559 89.3845C80.9521 87.9922 81.3859 85.8305 80.622 84.0053C81.7241 83.9046 82.7989 83.4345 83.6408 82.5948C85.3262 80.914 85.5459 78.1491 84.142 76.2264C86.0474 75.1681 87.735 73.729 89.0777 72.0074C89.4406 71.542 89.3579 70.8704 88.8925 70.5074C88.4275 70.1446 87.7561 70.2275 87.3929 70.6927C86.1102 72.3373 84.4658 73.6852 82.6057 74.6226L70.9136 62.9636L73.7745 60.5251C74.2237 60.1425 74.2775 59.4679 73.8948 59.0185C73.5119 58.569 72.8376 58.5155 72.3886 58.8982L68.5521 62.1683C65.8499 64.0754 62.4476 64.7858 59.2072 64.1149C58.854 64.042 58.4893 64.1514 58.235 64.4061L56.6658 65.9788C54.4331 68.2183 50.7935 68.2219 48.5519 65.9863C48.2181 65.5843 48.2183 65.1826 48.5521 64.7809L56.7634 56.6016C59.2861 54.089 62.4365 53.467 65.7696 52.8021C65.9132 52.7734 66.0491 52.7157 66.1692 52.6324L72.8897 47.9737L93.0463 68.0741C93.5493 68.4899 94.0521 68.4899 94.5551 68.0741L99.6861 62.9561C100.105 62.4516 100.105 61.9472 99.6859 61.4427ZM39.4273 81.7388C38.3461 82.8172 36.5867 82.817 35.5055 81.7388C34.4401 80.6764 34.4378 78.8692 35.5055 77.8044L37.9717 75.345C39.0209 74.2989 40.8102 74.2875 41.8722 75.3241C42.9568 76.3831 42.9694 78.2063 41.8935 79.2794L39.4273 81.7388ZM44.8739 87.1704C42.344 89.6933 38.4153 85.7655 40.9521 83.2363L43.4764 80.7187C44.5335 79.6734 46.3076 79.654 47.3771 80.6978C48.4617 81.7568 48.4741 83.5801 47.3982 84.6529L44.8739 87.1704ZM50.279 92.6433C49.2205 93.6989 47.4982 93.6982 46.4397 92.6429C45.3264 91.604 45.2703 89.7933 46.3579 88.7085L49.0217 86.0519C50.1117 84.9647 51.8598 85.0476 52.9239 86.1119C53.9863 87.1487 53.998 88.9345 52.9446 89.985L50.279 92.6433ZM57.7779 96.0284L56.7256 97.0777C55.6559 98.1444 53.9066 98.1542 52.8249 97.0987C51.7401 96.0399 51.7282 94.2164 52.8038 93.1435L53.8561 92.0942C54.8925 91.0664 56.6061 91.0219 57.688 92.0087C58.8348 93.054 58.8794 94.9296 57.7779 96.0284Z" fill="#011214"/>
<path id="Vector_11" d="M54.5468 12.6224H48.1848V9.05705C48.1848 8.46688 47.7066 7.98846 47.1165 7.98846H43.9987V1.06859C43.9987 0.478419 43.5205 0 42.9303 0H17.813C17.2229 0 16.7447 0.478419 16.7447 1.06859V7.98825H13.6269C13.0368 7.98825 12.5585 8.46667 12.5585 9.05684V12.6222H6.19658C2.77991 12.6222 0 15.4026 0 18.8203V87.8419C0 91.2596 2.77991 94.04 6.19658 94.04H10.0335V98.8487C10.0335 99.7532 11.1361 100.249 11.8118 99.6474L16.8712 95.1491L21.9306 99.6474C22.619 100.26 23.7088 99.7457 23.7088 98.8487V94.04H30.3429C30.9331 94.04 31.4113 93.5615 31.4113 92.9714C31.4113 92.3812 30.9331 91.9028 30.3429 91.9028H23.7088V83.5081C25.3201 81.8126 26.3122 79.5227 26.3122 77.0036C26.3122 71.794 22.0771 67.5556 16.8712 67.5556C11.6656 67.5556 7.43034 71.794 7.43034 77.0036C7.43034 79.5224 8.42244 81.8126 10.0335 83.5079V91.9028H6.19658C3.95791 91.9028 2.13675 90.081 2.13675 87.8419V18.8205C2.13675 16.5814 3.95791 14.7596 6.19658 14.7596H12.5585V18.2553C12.5585 18.8455 13.0368 19.3239 13.6269 19.3239H47.1162C47.7064 19.3239 48.1846 18.8455 48.1846 18.2553V14.7596H54.5466C56.7853 14.7596 58.6064 16.5814 58.6064 18.8205V38.3314C58.6064 38.9216 59.0846 39.4 59.6748 39.4C60.265 39.4 60.7432 38.9216 60.7432 38.3314V18.8205C60.7434 15.4028 57.9637 12.6224 54.5468 12.6224ZM21.572 96.469L17.581 92.9205C17.1761 92.5605 16.566 92.5605 16.1611 92.9205L12.1701 96.469V85.1915C15.0447 86.8509 18.6968 86.8511 21.5718 85.1915L21.572 96.469ZM16.8712 69.6925C20.8987 69.6925 24.1754 72.9722 24.1754 77.0034C24.1754 81.0346 20.8987 84.3141 16.8712 84.3141C12.8436 84.3141 9.56709 81.0344 9.56709 77.0032C9.56709 72.972 12.8436 69.6925 16.8712 69.6925ZM46.0481 17.1868H14.6953V10.1256H46.0479V17.1868H46.0481Z" fill="#011214"/>
</g>
</g>
<defs>
<clipPath id="clip0_777_25717">
<rect width="100" height="100" fill="white"/>
</clipPath>
</defs>
</svg>
