<svg xmlns="http://www.w3.org/2000/svg" width="64" height="66" fill="none" viewBox="0 0 64 66">
  <g clip-path="url(#a)">
    <path fill="#011214" d="M52.96 16.166c.198 0 .397-.051.576-.154l8.544-4.825c.57-.32.768-1.038.448-1.608a1.181 1.181 0 0 0-1.607-.449l-8.544 4.819a1.179 1.179 0 0 0-.448 1.608c.218.391.615.609 1.03.609Zm9.984 8.35-9.152-3.537a1.18 1.18 0 0 0-.851 2.198l9.152 3.537a1.18 1.18 0 0 0 1.523-.68 1.17 1.17 0 0 0-.672-1.518Zm-16.045-12.4a1.184 1.184 0 0 0 1.37-.955l1.721-9.669a1.174 1.174 0 0 0-.953-1.365 1.172 1.172 0 0 0-1.364.955l-1.721 9.67c-.115.64.307 1.249.947 1.364Zm-8.698-9.592a4.946 4.946 0 0 0-4-2.518 4.93 4.93 0 0 0-4.288 1.986L10.118 28.559l-6.553 3.697a6.358 6.358 0 0 0-3.021 3.857 6.376 6.376 0 0 0 .589 4.87l2.892 5.152a6.353 6.353 0 0 0 3.853 3.025 6.38 6.38 0 0 0 4.73-.519l7.385 13.123a4.548 4.548 0 0 0 6.19 1.73 4.558 4.558 0 0 0 1.727-6.197l-7.085-12.59 31.277-3.397a4.935 4.935 0 0 0 3.872-2.666 4.961 4.961 0 0 0-.09-4.703L38.202 2.524ZM8.518 46.89a4.007 4.007 0 0 1-2.438-1.91l-2.9-5.145a4.005 4.005 0 0 1-.37-3.075 4.01 4.01 0 0 1 1.907-2.442l5.734-3.236 6.867 12.207-5.734 3.236a4.057 4.057 0 0 1-3.066.365ZM25.03 61.437a2.191 2.191 0 0 1-2.982-.833l-7.38-13.117 3.815-2.153 7.386 13.117a2.201 2.201 0 0 1-.839 2.986Zm28.858-23.869a2.556 2.556 0 0 1-2.035 1.397L19.57 42.47l-7.264-12.905L31.801 3.402a2.544 2.544 0 0 1 2.253-1.038 2.558 2.558 0 0 1 2.1 1.32L53.836 35.1c.435.775.454 1.679.05 2.467Z"/>
    <path fill="#011214" d="M32.467 8.01a1.173 1.173 0 0 0-1.645.236L15.193 29.213a1.177 1.177 0 0 0 .941 1.883c.359 0 .71-.166.947-.474L32.704 9.656a1.177 1.177 0 0 0-.237-1.647Z"/>
  </g>
  <defs>
    <clipPath id="a">
      <path fill="#fff" d="M0 0h64v66H0z"/>
    </clipPath>
  </defs>
</svg>
