<svg width="100" height="100" viewBox="0 0 100 100" fill="none" xmlns="http://www.w3.org/2000/svg">
<g id="noun-competitive-advantage-5789336 1">
<path id="Vector" d="M71.9561 68.0892C70.5041 67.7005 68.9908 67.8974 67.6959 68.6454L54.4071 76.3168C54.2786 75.6933 54.052 75.0872 53.7255 74.5168C52.9194 73.1076 51.6194 72.0984 50.0643 71.6749L34.5061 67.4403C34.4439 67.4229 34.3806 67.4107 34.3173 67.4025C31.8633 67.078 29.6235 67.676 27.6581 69.18L23.9612 72.0107L23.9377 71.9239C23.601 70.6668 22.3041 69.9188 21.0469 70.2545L17.3449 71.2464C16.0877 71.5831 15.3398 72.8801 15.6755 74.1372L21.0428 94.1678C21.2061 94.776 21.5959 95.2841 22.1428 95.5994C22.5081 95.8117 22.9122 95.9188 23.3214 95.9188C23.5255 95.9188 23.7316 95.8923 23.9347 95.8372L27.6367 94.8454C28.2449 94.6821 28.753 94.2913 29.0694 93.7454C29.3847 93.1984 29.4684 92.5627 29.3061 91.9556L29.1694 91.4443C31.2112 89.9729 33.0439 89.5831 35.3326 90.1086L44.2449 92.1515C45.0469 92.3352 45.8296 92.427 46.5898 92.427C48.1704 92.427 49.6561 92.0301 51.0265 91.2392L73.3133 78.3729C75.9949 76.825 76.9163 73.3841 75.3684 70.7015C74.6194 69.4056 73.4081 68.478 71.9561 68.0892ZM23.6918 92.9198L18.5939 73.8964L21.2898 73.1739L26.3867 92.1974L23.6918 92.9198ZM71.8714 75.877L49.5847 88.7433C48.1867 89.5505 46.65 89.7464 44.8867 89.3423L35.9745 87.2994C33.2041 86.6647 30.7979 87.0351 28.3806 88.5076L24.7673 75.0229L29.4092 71.4678C30.7398 70.4494 32.1918 70.0494 33.8459 70.2474L49.3071 74.4556C50.1194 74.677 50.801 75.2066 51.2245 75.9474C51.6479 76.6882 51.7602 77.5443 51.5388 78.3566C51.3173 79.1709 50.7877 79.8525 50.0479 80.276C49.3081 80.6994 48.452 80.8107 47.6377 80.5892L39.3265 78.327C38.4908 78.0994 37.6275 78.6556 37.5173 79.5484C37.4286 80.2647 37.9163 80.929 38.6132 81.1188L46.8816 83.3688C47.4122 83.5137 47.9459 83.5821 48.4714 83.5821C50.8908 83.5821 53.1316 82.1199 54.0724 79.8372L69.1357 71.1403C69.7643 70.777 70.501 70.6821 71.2092 70.8719C71.9184 71.0617 72.5082 71.5127 72.8704 72.1413C73.6255 73.4474 73.1765 75.1229 71.8714 75.877ZM33.1694 50.5045H34.2745V63.9515C34.2745 64.7474 34.9194 65.3923 35.7153 65.3923H43.6061C44.402 65.3923 45.0469 64.7474 45.0469 63.9515V50.5045H46.151C47.0398 50.5045 47.8377 50.0076 48.2306 49.2076C48.6214 48.4127 48.5255 47.4821 47.9816 46.778L41.5235 38.4198C41.1367 37.9198 40.5745 37.5698 39.9469 37.4954C39.1184 37.3964 38.3296 37.7311 37.8306 38.377L31.3398 46.777C30.7959 47.4811 30.7 48.4117 31.0908 49.2066C31.4837 50.0076 32.2806 50.5045 33.1694 50.5045ZM39.6612 40.7219L44.9949 47.6239H43.6071C42.8112 47.6239 42.1663 48.2688 42.1663 49.0647V62.5117H37.1561V49.0647C37.1561 48.2688 36.5112 47.6239 35.7153 47.6239H34.3275L39.6612 40.7219ZM53.6826 65.3933H61.5735C62.3694 65.3933 63.0143 64.7484 63.0143 63.9525V39.127H64.1184H64.1194C65.0081 39.127 65.8051 38.6301 66.1979 37.8301C66.5888 37.0352 66.4928 36.1045 65.949 35.4005L59.4571 26.9994C59.0194 26.4331 58.3439 26.1015 57.6275 26.1015C56.9061 26.1015 56.2398 26.429 55.7979 27.0005L49.3061 35.4015C48.7622 36.1056 48.6663 37.0362 49.0571 37.8311C49.45 38.6311 50.2469 39.128 51.1357 39.128H52.2418V63.9535C52.2428 64.7474 52.8877 65.3933 53.6826 65.3933ZM57.6286 29.3443L62.9622 36.2464H61.5745C60.7786 36.2464 60.1337 36.8913 60.1337 37.6872V62.5127H55.1235V37.6862C55.1235 36.8903 54.4786 36.2454 53.6826 36.2454H52.2949L57.6286 29.3443ZM83.9173 43.528L77.4255 35.127C76.9847 34.5556 76.3173 34.228 75.5959 34.228C74.8745 34.228 74.2081 34.5556 73.7663 35.127L67.2745 43.528C66.7306 44.2321 66.6347 45.1627 67.0255 45.9576C67.4184 46.7576 68.2143 47.2545 69.1041 47.2545H70.2092V63.9525C70.2092 64.7484 70.8541 65.3933 71.65 65.3933H79.5408C80.3367 65.3933 80.9816 64.7484 80.9816 63.9525V47.2535H82.0857H82.0877C82.9765 47.2535 83.7735 46.7566 84.1663 45.9566C84.5571 45.1627 84.4612 44.2321 83.9173 43.528ZM79.5418 44.3729C78.7459 44.3729 78.101 45.0178 78.101 45.8137V62.5117H73.0908V45.8137C73.0908 45.0178 72.4459 44.3729 71.65 44.3729H70.2622L75.5959 37.4709L80.9296 44.3729H79.5418ZM51.649 17.628L50.2622 23.5413C50.1653 23.9545 50.2316 24.3984 50.4806 24.7423C50.9428 25.378 51.7775 25.5178 52.402 25.1392L57.6286 21.9739L62.8551 25.1392C63.0847 25.278 63.3439 25.3474 63.601 25.3474C64.05 25.3474 64.4979 25.1372 64.7898 24.7239C65.0296 24.3831 65.0898 23.9464 64.9949 23.5413L63.6081 17.629L68.2337 13.6362C68.7867 13.1586 68.9112 12.3229 68.451 11.6872C68.203 11.3433 67.801 11.1433 67.3775 11.1076L61.3224 10.5994L58.9684 4.99944C58.8061 4.60659 58.4918 4.28618 58.0888 4.15556C57.3418 3.91373 56.5847 4.29026 56.301 4.96475L53.9326 10.5984L47.8775 11.1066C47.4551 11.1423 47.053 11.3423 46.8041 11.6862C46.3449 12.3219 46.4694 13.1576 47.0214 13.6352L51.649 17.628Z" fill="#011214"/>
</g>
</svg>
