<svg width="100" height="100" viewBox="0 0 100 100" fill="none" xmlns="http://www.w3.org/2000/svg">
<g id="noun-corporate-social-responsibility-5869985 1">
<path id="Vector" fill-rule="evenodd" clip-rule="evenodd" d="M80.4984 30.3802C80.2041 30.3851 79.9239 30.5067 79.7193 30.7182C79.5146 30.9298 79.4024 31.2139 79.4073 31.5081C79.4122 31.8024 79.5338 32.0827 79.7453 32.2873C79.9568 32.4919 80.241 32.6041 80.5352 32.5992C80.3704 37.4658 78.5577 42.1322 75.3942 45.8339L75.3689 45.8087C75.1602 45.6041 74.8792 45.4902 74.5869 45.4916C74.2947 45.493 74.0148 45.6097 73.8081 45.8163C73.6014 46.0229 73.4845 46.3027 73.4829 46.5949C73.4813 46.8871 73.595 47.1682 73.7994 47.3771L73.87 47.4497C70.3168 50.8541 65.7046 52.9386 60.8015 53.356V53.0634C60.8015 52.7689 60.6845 52.4864 60.4763 52.2781C60.268 52.0699 59.9855 51.9529 59.691 51.9529C59.3965 51.9529 59.114 52.0699 58.9057 52.2781C58.6975 52.4864 58.5805 52.7689 58.5805 53.0634V53.4297C53.5872 53.3454 48.7792 51.5246 44.9826 48.2803L45.3689 47.896C45.5783 47.6881 45.6965 47.4054 45.6974 47.1103C45.6984 46.8152 45.5821 46.5317 45.3742 46.3224C45.1662 46.113 44.8835 45.9948 44.5884 45.9938C44.2933 45.9928 44.0099 46.1091 43.8005 46.3171L43.3668 46.7518C39.8746 43.1092 37.7739 38.3549 37.4321 33.3202H38.1163C38.2649 33.3248 38.413 33.2995 38.5516 33.2458C38.6903 33.1921 38.8168 33.111 38.9235 33.0075C39.0303 32.904 39.1152 32.7801 39.1731 32.6431C39.2311 32.5062 39.261 32.359 39.261 32.2102C39.261 32.0615 39.2311 31.9143 39.1731 31.7774C39.1152 31.6404 39.0303 31.5165 38.9235 31.413C38.8168 31.3095 38.6903 31.2284 38.5516 31.1747C38.413 31.121 38.2649 31.0957 38.1163 31.1002H37.3952C37.5648 26.0573 39.5024 21.2346 42.8689 17.476L43.2826 17.8897C43.3847 17.9972 43.5073 18.0831 43.6432 18.1424C43.779 18.2017 43.9254 18.2333 44.0736 18.2351C44.2219 18.237 44.369 18.2091 44.5063 18.1532C44.6436 18.0974 44.7683 18.0145 44.8731 17.9097C44.9779 17.8048 45.0606 17.68 45.1164 17.5427C45.1722 17.4054 45.1999 17.2582 45.198 17.11C45.196 16.9618 45.1644 16.8154 45.105 16.6796C45.0456 16.5438 44.9596 16.4212 44.8521 16.3192L44.431 15.8981C48.1187 12.5272 52.8653 10.546 57.8552 10.295V10.6392C57.8506 10.7878 57.876 10.9359 57.9297 11.0746C57.9834 11.2132 58.0644 11.3397 58.168 11.4465C58.2715 11.5532 58.3954 11.6381 58.5323 11.6961C58.6693 11.754 58.8165 11.7839 58.9652 11.7839C59.1139 11.7839 59.2611 11.754 59.3981 11.6961C59.535 11.6381 59.6589 11.5532 59.7625 11.4465C59.866 11.3397 59.947 11.2132 60.0007 11.0746C60.0545 10.9359 60.0798 10.7878 60.0752 10.6392V10.295C64.992 10.5437 69.6741 12.4735 73.3384 15.7613L73.2889 15.8108C73.1858 15.9138 73.1041 16.0362 73.0483 16.1708C72.9925 16.3055 72.9638 16.4498 72.9638 16.5955C72.9638 16.7413 72.9925 16.8856 73.0483 17.0202C73.1041 17.1549 73.1858 17.2772 73.2889 17.3802C73.392 17.4833 73.5143 17.565 73.6489 17.6208C73.7836 17.6766 73.9279 17.7053 74.0736 17.7053C74.2194 17.7053 74.3637 17.6766 74.4983 17.6208C74.633 17.565 74.7553 17.4833 74.8584 17.3802L74.9173 17.3224C78.2021 20.9176 80.169 25.5214 80.4963 30.3802H80.4984ZM60.0752 8.07288V6.5813L60.5131 7.05709C60.7131 7.27345 60.9909 7.40149 61.2854 7.41304C61.5798 7.42459 61.8667 7.3187 62.0831 7.11867C62.2995 6.91864 62.4275 6.64085 62.4391 6.34642C62.4506 6.05199 62.3447 5.76503 62.1447 5.54867L59.7805 2.99077C59.6768 2.87794 59.5507 2.78786 59.4104 2.72624C59.2701 2.66463 59.1185 2.63281 58.9652 2.63281C58.8119 2.63281 58.6604 2.66463 58.52 2.72624C58.3797 2.78786 58.2537 2.87794 58.1499 2.99077L55.7899 5.54867C55.6113 5.76763 55.5228 6.04649 55.5425 6.32842C55.5623 6.61035 55.6888 6.87414 55.8963 7.06605C56.1037 7.25796 56.3766 7.36354 56.6592 7.36129C56.9418 7.35904 57.2129 7.24912 57.4173 7.05393L57.8552 6.57814V8.07288C52.2775 8.3296 46.9693 10.5464 42.8657 14.3329L41.9878 13.456L42.6342 13.4802C42.925 13.4863 43.2067 13.3779 43.4185 13.1784C43.6303 12.979 43.7554 12.7044 43.7668 12.4137C43.7783 12.1229 43.6752 11.8393 43.4797 11.6238C43.2842 11.4083 43.012 11.2782 42.7215 11.2613L39.2405 11.1224C39.0867 11.1158 38.9332 11.1413 38.7897 11.1971C38.6463 11.253 38.516 11.3381 38.4071 11.4469C38.2983 11.5558 38.2132 11.6861 38.1574 11.8295C38.1015 11.973 38.076 12.1264 38.0826 12.2802L38.2215 15.7624C38.2327 16.0489 38.3543 16.32 38.561 16.5188C38.7676 16.7175 39.0432 16.8286 39.3299 16.8287C39.345 16.8297 39.3601 16.8297 39.3752 16.8287C39.5213 16.823 39.6648 16.7885 39.7974 16.7271C39.9301 16.6658 40.0493 16.5788 40.1482 16.4711C40.2471 16.3635 40.3238 16.2374 40.3738 16.1C40.4237 15.9627 40.4461 15.8168 40.4394 15.6708L40.4142 15.0245L41.2984 15.9087C37.5142 20.0845 35.3411 25.4717 35.1689 31.1045H34.0594L34.5331 30.6655C34.6402 30.5666 34.7267 30.4476 34.7878 30.3152C34.8488 30.1829 34.8832 30.0398 34.889 29.8942C34.8948 29.7485 34.8718 29.6032 34.8214 29.4664C34.771 29.3296 34.6941 29.2042 34.5952 29.0971C34.4963 28.99 34.3773 28.9035 34.2449 28.8424C34.1126 28.7814 33.9695 28.747 33.8239 28.7412C33.6782 28.7354 33.5329 28.7584 33.3961 28.8088C33.2593 28.8592 33.1339 28.9361 33.0268 29.035L30.4668 31.3981C30.3543 31.5023 30.2646 31.6286 30.2032 31.7691C30.1419 31.9095 30.1102 32.0612 30.1102 32.2145C30.1102 32.3678 30.1419 32.5194 30.2032 32.6599C30.2646 32.8003 30.3543 32.9266 30.4668 33.0308L33.0268 35.3929C33.1338 35.4918 33.2592 35.5686 33.3959 35.6191C33.5326 35.6695 33.6779 35.6925 33.8235 35.6868C33.9691 35.6811 34.1121 35.6468 34.2444 35.5858C34.3768 35.5248 34.4958 35.4383 34.5947 35.3313C34.6936 35.2243 34.7705 35.0989 34.8209 34.9622C34.8713 34.8255 34.8943 34.6802 34.8886 34.5346C34.8829 34.389 34.8486 34.246 34.7876 34.1136C34.7266 33.9813 34.6401 33.8623 34.5331 33.7634L34.0594 33.3245H35.2068C35.5533 38.9483 37.8894 44.2654 41.7973 48.3245L40.9321 49.1908L40.9573 48.5455C40.9643 48.2542 40.8564 47.9719 40.6571 47.7594C40.4578 47.5469 40.183 47.4212 39.8918 47.4095C39.6007 47.3977 39.3167 47.5009 39.1009 47.6966C38.8851 47.8924 38.7549 48.1652 38.7384 48.456L38.6005 51.9392C38.5942 52.0888 38.6183 52.2382 38.6712 52.3783C38.7242 52.5184 38.8049 52.6464 38.9085 52.7546C39.0121 52.8627 39.1365 52.9488 39.2742 53.0077C39.412 53.0665 39.5602 53.0969 39.7099 53.0971H39.7542L43.2352 52.9571C43.5295 52.9455 43.8071 52.8175 44.0069 52.6012C44.2068 52.385 44.3126 52.0982 44.301 51.8039C44.2894 51.5097 44.1614 51.2321 43.9452 51.0322C43.7289 50.8323 43.4421 50.7266 43.1478 50.7381L42.5015 50.7634L43.4078 49.8571C47.6245 53.5164 52.998 55.569 58.5805 55.6529V57.1266L58.1426 56.6529C57.9428 56.4367 57.6654 56.3086 57.3712 56.297C57.0771 56.2854 56.7904 56.391 56.5742 56.5908C56.3579 56.7905 56.2299 57.068 56.2183 57.3621C56.2066 57.6563 56.3123 57.943 56.5121 58.1592L58.8752 60.7202C58.9792 60.8328 59.1054 60.9227 59.2458 60.9841C59.3862 61.0456 59.5377 61.0773 59.691 61.0773C59.8443 61.0773 59.9959 61.0456 60.1362 60.9841C60.2766 60.9227 60.4028 60.8328 60.5068 60.7202L62.871 58.1592C63.0638 57.9417 63.1636 57.6573 63.149 57.3671C63.1345 57.0768 63.0067 56.8038 62.7932 56.6067C62.5797 56.4095 62.2974 56.3039 62.0069 56.3126C61.7164 56.3212 61.4409 56.4434 61.2394 56.6529L60.8015 57.1266V55.5855C66.293 55.1613 71.4659 52.8398 75.4331 49.0192L76.6626 50.2476L76.0173 50.2213C75.8701 50.2128 75.7226 50.2338 75.5836 50.2829C75.4445 50.3321 75.3166 50.4084 75.2074 50.5075C75.0982 50.6066 75.0098 50.7264 74.9474 50.8601C74.885 50.9937 74.8498 51.1384 74.8439 51.2858C74.8381 51.4331 74.8616 51.5802 74.9132 51.7184C74.9647 51.8565 75.0433 51.9831 75.1443 52.0905C75.2453 52.198 75.3667 52.2843 75.5014 52.3443C75.6361 52.4044 75.7815 52.437 75.9289 52.4403L79.411 52.5792H79.4552C79.605 52.579 79.7532 52.5486 79.8909 52.4898C80.0286 52.4309 80.1531 52.3448 80.2567 52.2367C80.3603 52.1285 80.441 52.0005 80.4939 51.8604C80.5469 51.7203 80.5709 51.5709 80.5647 51.4213L80.4257 47.9392C80.4222 47.7919 80.3894 47.6467 80.3293 47.5122C80.2691 47.3776 80.1827 47.2564 80.0752 47.1556C79.9677 47.0548 79.8412 46.9764 79.7031 46.9249C79.565 46.8735 79.418 46.8501 79.2708 46.856C79.1235 46.8619 78.9789 46.8971 78.8454 46.9595C78.7119 47.0219 78.5921 47.1103 78.4931 47.2194C78.3941 47.3286 78.3177 47.4563 78.2686 47.5953C78.2194 47.7342 78.1984 47.8815 78.2068 48.0287L78.2331 48.6739L76.9689 47.4087C80.5465 43.2861 82.5915 38.0551 82.7584 32.5992H84.5984L84.1236 33.036C84.0131 33.134 83.9232 33.2531 83.8592 33.3863C83.7952 33.5194 83.7585 33.664 83.7511 33.8116C83.7437 33.9591 83.7658 34.1067 83.8161 34.2456C83.8665 34.3844 83.944 34.5119 84.0443 34.6204C84.1445 34.729 84.2653 34.8165 84.3998 34.8777C84.5342 34.939 84.6795 34.9728 84.8272 34.9772C84.9749 34.9816 85.1219 34.9564 85.2598 34.9033C85.3976 34.8501 85.5235 34.77 85.63 34.6676L88.1899 32.3034C88.3028 32.1997 88.3929 32.0737 88.4545 31.9333C88.5161 31.793 88.5479 31.6414 88.5479 31.4881C88.5479 31.3349 88.5161 31.1833 88.4545 31.0429C88.3929 30.9026 88.3028 30.7766 88.1899 30.6729L85.63 28.3087C85.4125 28.1159 85.1281 28.0161 84.8378 28.0306C84.5475 28.0452 84.2746 28.1729 84.0774 28.3865C83.8803 28.6 83.7747 28.8823 83.7833 29.1728C83.792 29.4633 83.9142 29.7388 84.1236 29.9402L84.5984 30.3792H82.7247C82.3909 24.9291 80.1869 19.7611 76.4847 15.7476L77.7257 14.5076L77.6994 15.1518C77.6932 15.2978 77.7159 15.4436 77.7661 15.5809C77.8162 15.7181 77.893 15.8441 77.992 15.9517C78.0909 16.0592 78.2101 16.1462 78.3427 16.2076C78.4753 16.2691 78.6187 16.3038 78.7647 16.3097H78.81C79.0966 16.3094 79.372 16.1982 79.5786 15.9995C79.7852 15.8008 79.907 15.5298 79.9184 15.2434L80.0573 11.7613C80.0642 11.6074 80.039 11.4538 79.9832 11.3102C79.9274 11.1666 79.8424 11.0362 79.7335 10.9273C79.6245 10.8183 79.4941 10.7333 79.3505 10.6775C79.2069 10.6218 79.0533 10.5965 78.8994 10.6034L75.4173 10.7424C75.2717 10.7482 75.1286 10.7826 74.9963 10.8437C74.864 10.9048 74.745 10.9913 74.6461 11.0984C74.5473 11.2055 74.4704 11.331 74.4201 11.4678C74.3697 11.6045 74.3468 11.7499 74.3526 11.8955C74.3584 12.0411 74.3928 12.1842 74.4539 12.3165C74.515 12.4488 74.6016 12.5678 74.7086 12.6667C74.8157 12.7656 74.9412 12.8424 75.078 12.8928C75.2148 12.9431 75.3601 12.9661 75.5057 12.9602L76.151 12.935L74.9047 14.1824C70.8213 10.4822 65.5767 8.3198 60.0721 8.06656L60.0752 8.07288ZM64.1636 48.0434C66.8273 47.1831 69.2382 45.6803 71.1836 43.6676C69.8392 43.0679 68.4401 42.5991 67.0057 42.2676C66.4008 44.3432 65.439 46.2977 64.1636 48.0434ZM46.7468 43.6676C48.6922 45.6803 51.1031 47.1831 53.7668 48.0434C52.4918 46.2974 51.5301 44.3431 50.9247 42.2676C49.4907 42.5991 48.0909 43.0679 46.7468 43.6676ZM53.7668 15.6592C51.1027 16.5186 48.6915 18.0215 46.7468 20.035C48.0912 20.6341 49.4898 21.1033 50.9236 21.436C51.5286 19.3601 52.4914 17.4053 53.7668 15.6592ZM71.1836 20.035C69.2387 18.0213 66.8271 16.5183 64.1626 15.6592C65.4388 17.4048 66.4006 19.3598 67.0047 21.436C68.4388 21.1033 69.8389 20.6341 71.1836 20.035ZM68.4636 30.7381H75.9373C75.7263 27.5037 74.5904 24.398 72.6647 21.7908C71.0425 22.5727 69.3388 23.1728 67.5847 23.5802C68.1134 25.9313 68.4079 28.329 68.4636 30.7381ZM68.4636 32.9581C68.4086 35.3698 68.1141 37.77 67.5847 40.1234C69.3387 40.5313 71.0423 41.1314 72.6647 41.9129C74.5905 39.3036 75.7254 36.1955 75.9342 32.9592L68.4636 32.9581ZM49.4657 32.9581H42.0005C42.2062 36.195 43.339 39.3043 45.2636 41.915C46.886 41.1334 48.5896 40.5332 50.3436 40.1255C49.8138 37.7721 49.519 35.3719 49.4636 32.9602L49.4657 32.9581ZM49.4657 30.7381C49.5213 28.3261 49.8161 25.9256 50.3457 23.5718C48.5912 23.1674 46.8868 22.5701 45.2636 21.7908C43.3409 24.3989 42.2083 27.5046 42.0005 30.7381H49.4657ZM58.9647 24.5539C56.8076 24.5578 54.654 24.38 52.5268 24.0224C52.0244 26.2286 51.7423 28.4793 51.6847 30.7413H66.2415C66.1834 28.4793 65.9013 26.2287 65.3994 24.0224C63.2716 24.381 61.1173 24.5599 58.9594 24.5571L58.9647 24.5539ZM58.9647 14.8424C57.2089 14.8424 55.4121 16.5445 54.0342 19.516C53.6822 20.2824 53.3771 21.0695 53.1205 21.8729C55.0531 22.1823 57.0074 22.3365 58.9647 22.3339C60.9223 22.3366 62.877 22.1824 64.8099 21.8729C64.5534 21.0695 64.2482 20.2824 63.8963 19.516C62.5184 16.5445 60.7205 14.8424 58.9647 14.8424ZM58.9647 39.1424C61.1225 39.1394 63.2767 39.3176 65.4047 39.675C65.9066 37.4694 66.1887 35.2194 66.2468 32.9581H51.6847C51.7422 35.2195 52.0243 37.4695 52.5268 39.675C54.6541 39.3176 56.8076 39.1394 58.9647 39.1424ZM58.9647 48.855C60.7205 48.855 62.5184 47.1508 63.8963 44.1813C64.2481 43.4145 64.5532 42.6271 64.8099 41.8234C60.9376 41.2101 56.9928 41.2101 53.1205 41.8234C53.3772 42.6271 53.6824 43.4145 54.0342 44.1813C55.4121 47.1508 57.2089 48.855 58.9647 48.855ZM58.9647 12.6213C55.162 12.6213 51.4447 13.7489 48.2829 15.8615C45.121 17.9741 42.6566 20.9768 41.2012 24.4899C39.7458 28.0031 39.3649 31.8689 40.1065 35.5986C40.8482 39.3282 42.6791 42.7542 45.3678 45.4434C48.0564 48.1325 51.4821 49.964 55.2117 50.7062C58.9412 51.4485 62.8071 51.0681 66.3205 49.6133C69.8339 48.1586 72.837 45.6946 74.9501 42.5331C77.0632 39.3716 78.1914 35.6545 78.1921 31.8518C78.1865 26.7541 76.159 21.8668 72.5543 18.2622C68.9497 14.6576 64.0624 12.63 58.9647 12.6245V12.6213ZM37.9036 83.0876L34.6405 85.415L25.2352 69.1213C32.6699 62.9476 43.3489 58.7918 51.8447 65.0792C52.0358 65.2203 52.2671 65.2963 52.5047 65.296H65.7299C66.4941 65.296 67.2269 65.5996 67.7672 66.1399C68.3075 66.6802 68.611 67.413 68.611 68.1771C68.611 68.9412 68.3075 69.674 67.7672 70.2143C67.2269 70.7546 66.4941 71.0581 65.7299 71.0581H52.5047C52.356 71.0536 52.208 71.0789 52.0693 71.1326C51.9306 71.1863 51.8042 71.2674 51.6974 71.3709C51.5907 71.4744 51.5058 71.5983 51.4478 71.7353C51.3898 71.8722 51.36 72.0194 51.36 72.1681C51.36 72.3169 51.3898 72.4641 51.4478 72.601C51.5058 72.738 51.5907 72.8619 51.6974 72.9654C51.8042 73.0689 51.9306 73.1499 52.0693 73.2037C52.208 73.2574 52.356 73.2827 52.5047 73.2781H65.7299C66.5467 73.2781 67.3516 73.082 68.0768 72.7062C68.802 72.3304 69.4263 71.7859 69.8973 71.1186C70.3683 70.4513 70.6722 69.6807 70.7834 68.8715C70.8946 68.0623 70.8098 67.2383 70.5363 66.4687L80.5931 57.6918C80.9189 57.3532 81.3089 57.0828 81.7404 56.8967C82.1719 56.7105 82.6362 56.6122 83.1061 56.6075C83.576 56.6028 84.0421 56.6919 84.4772 56.8695C84.9123 57.047 85.3076 57.3095 85.6401 57.6416C85.9726 57.9738 86.2355 58.3688 86.4135 58.8037C86.5915 59.2386 86.6811 59.7047 86.6769 60.1746C86.6727 60.6445 86.5749 61.1089 86.3892 61.5405C86.2034 61.9722 85.9335 62.3625 85.5952 62.6887L70.3857 80.0266C69.7698 80.7549 68.9995 81.3369 68.1306 81.7306C67.2618 82.1242 66.3163 82.3195 65.3626 82.3024H40.3584C39.4769 82.293 38.616 82.5684 37.9036 83.0876ZM72.0552 81.4887C71.2303 82.4545 70.2033 83.2273 69.0468 83.7524C67.8904 84.2775 66.6326 84.5422 65.3626 84.5276H40.3584C39.9396 84.5193 39.5298 84.6499 39.1931 84.8992L35.7573 87.3508L36.5405 88.7045C36.8936 89.3177 36.989 90.046 36.8059 90.7296C36.6228 91.4131 36.176 91.9961 35.5636 92.3508L27.4815 97.0118C26.8684 97.3649 26.1403 97.4603 25.4569 97.2772C24.7735 97.094 24.1907 96.6473 23.8363 96.035L11.5036 74.6739C11.15 74.0609 11.0543 73.3326 11.2375 72.6491C11.4206 71.9655 11.8677 71.3827 12.4805 71.0287L20.5626 66.3624C21.1469 66.0253 21.8373 65.9223 22.4946 66.0741C23.1519 66.2258 23.7273 66.6211 24.1047 67.1803C27.9097 63.9952 32.3643 61.6795 37.1573 60.395C39.812 59.657 42.5969 59.5146 45.313 59.9781C48.0291 60.4416 50.6092 61.4994 52.8689 63.076H65.7299C66.3996 63.0755 67.0627 63.2073 67.6812 63.4638C68.2997 63.7203 68.8615 64.0965 69.3342 64.5708L79.1331 56.0181C80.2151 54.9546 81.6736 54.3617 83.1908 54.3685C84.708 54.3754 86.161 54.9814 87.2334 56.0547C88.3058 57.1279 88.9107 58.5814 88.9164 60.0986C88.9221 61.6158 88.328 63.0738 87.2636 64.155L72.0552 81.4887Z" fill="#011214"/>
</g>
</svg>
