<svg xmlns="http://www.w3.org/2000/svg" width="65" height="76" fill="none" viewBox="0 0 65 76">
  <path fill="#011214" d="M60.57 2.621H4.43a.875.875 0 0 0-.878.874v62.82c0 .482.393.873.879.873h33.228v4.445c0 .299.154.578.408.738a.88.88 0 0 0 .846.05l5.198-2.449 5.198 2.45a.88.88 0 0 0 .846-.051.872.872 0 0 0 .408-.738v-4.445H60.57c.486 0 .879-.39.879-.874V3.494a.876.876 0 0 0-.879-.873ZM44.11 61.21c-4.391 0-7.963-3.553-7.963-7.92s3.572-7.919 7.963-7.919c4.39 0 7.962 3.553 7.962 7.92 0 4.366-3.572 7.919-7.962 7.919Zm-4.695.538a9.683 9.683 0 0 0 3.817 1.165v5.542l-3.817 1.798v-8.505Zm9.39 8.505-3.816-1.798v-5.542a9.68 9.68 0 0 0 3.817-1.165v8.505Zm10.885-4.811h-9.128v-4.943c1.999-1.772 3.267-4.343 3.267-7.209 0-5.33-4.36-9.666-9.719-9.666-5.36 0-9.72 4.336-9.72 9.666 0 2.867 1.269 5.438 3.268 7.21v4.942H5.309V4.368H59.69v61.073Z"/>
  <path fill="#011214" d="M47.436 52.416h-6.65a.876.876 0 0 0-.879.874c0 .482.393.873.878.873h6.65c.486 0 .88-.39.88-.873a.876.876 0 0 0-.88-.874ZM36.584 12.959h15.083c.486 0 .879-.39.879-.873a.875.875 0 0 0-.879-.874H36.584a.875.875 0 0 0-.878.873c0 .483.392.874.878.874Zm0 8.782h15.083c.486 0 .879-.39.879-.873a.876.876 0 0 0-.879-.874H36.584a.875.875 0 0 0-.878.874c0 .483.392.873.878.873Zm0 8.782h15.083c.486 0 .879-.39.879-.873a.875.875 0 0 0-.879-.874H36.584a.875.875 0 0 0-.878.874c0 .483.392.873.878.873Zm0 8.782h15.083a.876.876 0 0 0 .879-.874.875.875 0 0 0-.879-.873H36.584a.875.875 0 0 0-.878.873c0 .483.392.874.878.874Zm-8.168 6.917H13.333a.875.875 0 0 0-.879.873c0 .483.393.874.879.874h15.083c.485 0 .878-.39.878-.874a.875.875 0 0 0-.878-.873Zm0 8.596H13.333a.875.875 0 0 0-.879.874c0 .483.393.873.879.873h15.083c.485 0 .878-.39.878-.873a.875.875 0 0 0-.878-.874Zm-8.42-18.012v4.096c0 .483.393.874.878.874a.876.876 0 0 0 .879-.874v-4.096c5.008-.444 8.948-4.635 8.948-9.73 0-7.402-8.866-15.311-9.244-15.644a.882.882 0 0 0-1.183.015c-.376.35-9.226 8.652-9.226 15.63 0 5.094 3.94 9.285 8.948 9.729Zm.892-23.51c1.957 1.884 8.056 8.198 8.056 13.78 0 4.131-3.153 7.54-7.191 7.977v-9.048a.876.876 0 0 0-.879-.873.876.876 0 0 0-.878.873v9.048c-4.038-.437-7.191-3.846-7.191-7.976 0-5.259 6.134-11.827 8.083-13.78Z"/>
</svg>
