<svg width="70" height="74" viewBox="0 0 70 74" fill="none" xmlns="http://www.w3.org/2000/svg">
<g id="noun-green-energy-4099847 1">
<g id="Layer 4">
<path id="Vector" d="M44.8438 54.1191H25.1562C24.8662 54.1191 24.588 54.2355 24.3829 54.4426C24.1777 54.6498 24.0625 54.9307 24.0625 55.2236C24.0625 55.5165 24.1777 55.7975 24.3829 56.0046C24.588 56.2117 24.8662 56.3281 25.1562 56.3281H44.8438C45.1338 56.3281 45.412 56.2117 45.6171 56.0046C45.8223 55.7975 45.9375 55.5165 45.9375 55.2236C45.9375 54.9307 45.8223 54.6498 45.6171 54.4426C45.412 54.2355 45.1338 54.1191 44.8438 54.1191Z" fill="#4E888F"/>
<path id="Vector_2" d="M35 67.373C36.2602 67.3714 37.4814 66.9311 38.4576 66.1263C39.4339 65.3216 40.1055 64.2016 40.3594 62.9551H29.6406C29.8945 64.2016 30.5661 65.3216 31.5424 66.1263C32.5186 66.9311 33.7398 67.3714 35 67.373Z" fill="#4E888F"/>
<path id="Vector_3" d="M44.8438 49.7012H25.1562C24.8662 49.7012 24.588 49.8175 24.3829 50.0247C24.1777 50.2318 24.0625 50.5127 24.0625 50.8056C24.0625 51.0986 24.1777 51.3795 24.3829 51.5866C24.588 51.7938 24.8662 51.9101 25.1562 51.9101H44.8438C45.1338 51.9101 45.412 51.7938 45.6171 51.5866C45.8223 51.3795 45.9375 51.0986 45.9375 50.8056C45.9375 50.5127 45.8223 50.2318 45.6171 50.0247C45.412 49.8175 45.1338 49.7012 44.8438 49.7012Z" fill="#4E888F"/>
<path id="Vector_4" d="M47.0411 8.16141C45.3188 6.49993 43.2763 5.21426 41.0406 4.38447C38.805 3.55467 36.4241 3.19851 34.0463 3.33816C29.8684 3.57868 25.9131 5.31853 22.8935 8.24403C19.8739 11.1695 17.9886 15.0882 17.5777 19.2934C17.1705 23.4368 18.2426 27.5908 20.6008 31.0064C23.5046 35.1084 25.0945 40.0102 25.1563 45.0521C25.1556 45.3305 25.2096 45.6063 25.3151 45.8635C25.4206 46.1208 25.5756 46.3544 25.7709 46.5508L26.7028 47.4919H33.9063V36.4471H32.8125C29.6228 36.4433 26.5648 35.1621 24.3093 32.8844C22.0538 30.6068 20.785 27.5188 20.7813 24.2978C20.7813 24.0049 20.8965 23.724 21.1016 23.5168C21.3067 23.3097 21.5849 23.1933 21.875 23.1933H24.0625C25.9958 23.1955 27.9 23.6684 29.6136 24.5721C31.3273 25.4758 32.7998 26.7835 33.9063 28.3844V24.7551L30.9455 21.7653C29.2924 20.0922 28.364 17.8254 28.364 15.462C28.364 13.0986 29.2924 10.8318 30.9455 9.15875C31.1506 8.95169 31.4287 8.83538 31.7188 8.83538C32.0088 8.83538 32.2869 8.95169 32.492 9.15875L35.7733 12.4722C37.3663 14.086 38.2871 16.2543 38.3467 18.5321C38.4062 20.8099 37.6001 23.0243 36.0938 24.7208V28.3844C37.2002 26.7835 38.6727 25.4758 40.3864 24.5721C42.1 23.6684 44.0043 23.1955 45.9375 23.1933H48.125C48.4151 23.1933 48.6933 23.3097 48.8984 23.5168C49.1035 23.724 49.2188 24.0049 49.2188 24.2978C49.215 27.5188 47.9462 30.6068 45.6907 32.8844C43.4352 35.1621 40.3772 36.4433 37.1875 36.4471H36.0938V47.4919H43.2972L44.2247 46.5553C44.6197 46.1543 44.8421 45.6121 44.8438 45.0465C44.8601 40.0575 46.4178 35.198 49.2997 31.1456C51.7223 27.6802 52.8274 23.4495 52.4126 19.2284C51.9978 15.0073 50.0909 11.0784 47.0411 8.16141Z" fill="#4E888F"/>
<path id="Vector_5" d="M44.8438 58.5371H25.1562C24.8662 58.5371 24.588 58.6535 24.3829 58.8606C24.1777 59.0677 24.0625 59.3487 24.0625 59.6416C24.0625 59.9345 24.1777 60.2154 24.3829 60.4226C24.588 60.6297 24.8662 60.7461 25.1562 60.7461H44.8438C45.1338 60.7461 45.412 60.6297 45.6171 60.4226C45.8223 60.2154 45.9375 59.9345 45.9375 59.6416C45.9375 59.3487 45.8223 59.0677 45.6171 58.8606C45.412 58.6535 45.1338 58.5371 44.8438 58.5371Z" fill="#4E888F"/>
<path id="Vector_6" d="M34.2267 14.0338L31.7822 11.5664C30.8716 12.8589 30.4434 14.4352 30.5733 16.016C30.7032 17.5968 31.3829 19.0802 32.492 20.2034L34.9366 22.6708C35.8471 21.3783 36.2754 19.8021 36.1455 18.2213C36.0156 16.6405 35.3359 15.1571 34.2267 14.0338Z" fill="#4E888F"/>
<path id="Vector_7" d="M24.0625 25.4023H23.0289C23.301 27.8312 24.4485 30.0741 26.2527 31.7035C28.057 33.333 30.3919 34.2352 32.8125 34.2382H33.8461C33.574 31.8093 32.4265 29.5664 30.6223 27.937C28.818 26.3075 26.4831 25.4053 24.0625 25.4023Z" fill="#4E888F"/>
<path id="Vector_8" d="M46.9711 25.4023H45.9375C43.5169 25.4053 41.182 26.3075 39.3777 27.937C37.5735 29.5664 36.426 31.8093 36.1539 34.2382H37.1875C39.6081 34.2352 41.943 33.333 43.7473 31.7035C45.5515 30.0741 46.699 27.8312 46.9711 25.4023Z" fill="#4E888F"/>
<path id="Vector_9" d="M13.125 61.8496H6.5625C6.5625 63.6072 7.2539 65.2927 8.48461 66.5355C9.71532 67.7783 11.3845 68.4765 13.125 68.4765H19.6875C19.6875 66.7189 18.9961 65.0334 17.7654 63.7906C16.5347 62.5478 14.8655 61.8496 13.125 61.8496Z" fill="#4E888F"/>
<path id="Vector_10" d="M63.4375 40.8652H56.875C55.1345 40.8652 53.4653 41.5634 52.2346 42.8062C51.0039 44.049 50.3125 45.7345 50.3125 47.4921H56.875C58.6155 47.4921 60.2847 46.7939 61.5154 45.5511C62.7461 44.3084 63.4375 42.6228 63.4375 40.8652Z" fill="#4E888F"/>
<path id="Vector_11" d="M52.5 66.2674V68.4764C55.4008 68.4764 58.1828 67.3127 60.234 65.2414C62.2852 63.1701 63.4375 60.3609 63.4375 57.4316V55.2227C60.5367 55.2227 57.7547 56.3863 55.7035 58.4576C53.6523 60.5289 52.5 63.3382 52.5 66.2674Z" fill="#4E888F"/>
</g>
</g>
</svg>
