<svg width="99" height="100" viewBox="0 0 99 100" fill="none" xmlns="http://www.w3.org/2000/svg">
<g id="noun-hand-with-a-seedling-6007815 1">
<path id="Vector" fill-rule="evenodd" clip-rule="evenodd" d="M3.32739 55.1368C17.9986 56.0683 21.7249 62.4382 22.2611 65.0957C23.0586 68.6847 21.6011 71.2053 19.3324 72.671C19.7311 74.2601 20.1299 75.8628 20.4049 77.5889C21.3399 76.1231 22.5361 74.9313 23.7324 73.8765C25.0661 72.6847 26.6611 71.7532 28.3936 71.082C29.8649 70.5478 30.6624 72.808 29.1911 73.3423C27.5961 73.8765 26.1249 74.9313 24.7911 75.9998C23.0586 77.5889 21.7249 79.5889 20.9274 81.5751L21.0649 86.219C24.3924 85.2875 27.8574 84.8902 31.1986 84.8902C40.1361 84.8902 49.8574 87.808 55.9899 94.3149H6.39364C9.72114 90.8628 14.1211 88.3423 18.6586 86.8765C18.7961 82.0957 18.3974 77.7121 17.0636 73.5889C13.5986 74.3834 9.59739 73.0546 8.00239 68.671C6.39364 64.5615 5.05989 57.5204 3.32739 55.1368ZM19.3186 72.671C17.9849 68.8217 16.1149 65.3697 13.4474 62.1779C12.5124 60.9861 10.6424 62.5752 11.5774 63.6436C14.2449 66.8354 15.9774 70.1505 17.0499 73.6025C17.8611 73.3286 18.6586 73.0683 19.3186 72.671ZM23.7186 73.8628C23.9799 74.6573 24.2549 75.4519 24.7911 75.9861C26.6611 78.3834 30.1261 79.4382 33.1924 77.3149C36.1211 75.3286 40.1224 71.2053 42.3911 70.4108C32.2574 64.4382 27.0599 66.9587 25.4649 68.5478C23.5811 70.1368 23.1824 72.1368 23.7186 73.8628ZM50.5174 68.1505C51.8511 69.6162 53.7211 72.3971 53.7211 74.3971C53.7211 76.2601 52.1261 77.8491 50.1186 77.8491C48.1249 77.8491 46.5161 76.2601 46.5161 74.3971C46.5161 72.4108 48.3861 69.6162 49.5824 68.1505L50.1186 67.6162L50.5174 68.1505ZM50.5174 50.082C51.8511 51.671 53.7211 54.3286 53.7211 56.3286C53.7211 58.3286 52.1261 59.9176 50.1186 59.9176C48.1249 59.9176 46.5161 58.3286 46.5161 56.3286C46.5161 54.3286 48.3861 51.6847 49.5824 50.082L50.1186 49.5478L50.5174 50.082ZM54.6424 89.9313C56.3749 91.2601 57.8461 92.7258 59.1799 94.3149H93.9811C88.5086 87.945 80.1211 84.8902 71.8574 84.8902C65.8486 84.8902 59.7161 86.4793 54.6424 89.9313ZM82.6511 6.26008L90.2549 24.8491L87.8486 25.7806C87.1886 26.1779 86.2536 25.7806 85.9786 24.9861L79.5849 9.0409C79.1861 8.38337 79.5849 7.45186 80.3824 7.17789L82.6511 6.26008ZM92.5099 24.0546L84.9061 5.32858L87.1749 4.39707C87.9724 4.1368 88.7699 4.53406 89.1686 5.19159L95.5624 21.1231C95.8236 21.9176 95.5624 22.7121 94.7649 22.9861L92.5099 24.0546ZM77.7149 10.7806L83.9849 26.0546C78.6499 34.0272 72.9161 36.5478 70.7849 37.4793C70.2486 37.7395 69.8499 37.8765 69.5886 38.2738C67.4574 40.9313 65.4499 43.5888 63.3186 46.2464C61.8474 48.1094 59.1799 48.9039 58.2586 46.1094C57.9974 45.1779 57.9974 44.1231 58.3961 42.9176C58.7949 41.3286 61.0636 37.9998 61.8611 36.4108C63.0574 34.5478 64.2674 32.5615 65.5874 30.4382C66.1236 29.7806 65.7249 28.8491 65.0511 28.5752L57.5849 26.5889C55.9899 26.1916 54.9174 26.4519 53.5836 27.1231C51.1774 28.5889 47.7124 31.2464 45.7186 32.9724C45.4574 33.2327 45.3199 33.3697 45.3199 33.6299L42.3911 45.8491C41.7311 48.3697 40.2599 49.6984 38.7886 50.0957C38.1286 50.356 37.3174 50.356 36.7949 49.8354C36.3961 49.5752 36.2586 49.0409 36.3961 48.1094C36.9324 45.8491 37.4686 43.1916 37.9911 40.4108C38.5274 37.493 39.0636 34.5615 39.7236 31.9039C39.9849 30.9724 40.1224 30.4382 40.6586 29.6436C43.5874 24.7258 47.7261 20.3423 51.3286 15.8354C53.1986 13.3149 54.7936 11.5889 58.2586 11.1916C64.6524 10.5067 71.1836 12.0957 77.7149 10.7806ZM35.7224 39.1916C33.7286 40.6573 30.7861 39.7258 31.8586 37.6026C32.7936 35.6162 33.4536 34.1505 34.1274 32.6847C34.9249 30.9587 35.5986 29.3697 36.9324 26.9724C37.1936 26.3149 37.5924 25.7806 38.1286 25.1094C40.2599 22.9861 43.4636 20.3286 46.5299 18.0683C43.7249 21.3834 40.3974 25.3697 38.6649 28.4245C38.1286 29.356 37.5924 30.2875 37.4686 31.3423C36.7811 33.8902 36.2586 36.5341 35.7224 39.1916ZM45.7186 15.6847C42.5149 18.2053 38.7886 21.1368 36.5199 23.5204C35.7224 24.3149 35.1861 24.9861 34.7874 25.9176C33.4536 28.4382 32.7936 30.0409 31.9824 31.6299C31.8449 32.1642 31.5836 32.6984 31.3224 33.219C29.3286 34.1505 26.6611 33.082 28.2561 30.9587C30.5249 28.0409 32.6561 24.8491 35.0486 21.7943C35.5849 21.2601 35.9836 20.7258 36.6436 20.3286C39.0499 18.7395 42.5149 17.1505 45.7186 15.6847Z" fill="#011214"/>
</g>
</svg>
