<svg width="55" height="55" viewBox="0 0 55 55" fill="none" xmlns="http://www.w3.org/2000/svg">
<g id="Right Arrow">
<path id="Vector" d="M27.5052 4.58203C40.1094 4.58203 50.4219 14.8945 50.4219 27.4987C50.4219 40.1029 40.1094 50.4154 27.5052 50.4154C14.901 50.4154 4.58854 40.1029 4.58854 27.4987C4.58854 14.8945 14.901 4.58203 27.5052 4.58203ZM19.026 29.1029L25.901 35.9779C26.8177 36.8945 28.1927 36.8945 29.1094 35.9779C30.026 35.0612 30.026 33.6862 29.1094 32.7695L26.1302 29.7904H34.3802C35.7552 29.7904 36.6719 28.8737 36.6719 27.4987C36.6719 26.1237 35.7552 25.207 34.3802 25.207H26.1302L29.1094 22.2279C30.026 21.3112 30.026 19.9362 29.1094 19.0195C28.1927 18.1029 26.8177 18.1029 25.901 19.0195L19.026 25.8945C18.1094 26.8112 18.1094 28.1862 19.026 29.1029Z" fill="#4E888F"/>
</g>
</svg>
