<svg xmlns="http://www.w3.org/2000/svg" width="70" height="70" fill="none" viewBox="0 0 70 70">
  <path fill="#011214" d="M69.114 56.96 47.358 35.128 60.16 22.282l2.442-2.45c1.628-1.634 2.59-3.862 2.59-6.164 0-2.302-.888-4.53-2.59-6.163-1.628-1.634-3.848-2.6-6.142-2.6-2.294 0-4.514.892-6.142 2.6L35 22.727 13.244.896a1.07 1.07 0 0 0-1.554 0L.886 11.737a1.08 1.08 0 0 0 0 1.56l21.756 21.831L9.026 48.792c-.074.074-.148.222-.222.297 0 0 0 .074-.074.074v.074L4.882 63.94c-.074.371 0 .817.296 1.04.222.223.518.297.814.297h.296l14.652-3.861h.074s.074 0 .074-.075c.148-.074.222-.148.296-.223L35 47.53l21.756 21.832c.222.223.518.297.814.297.296 0 .592-.074.814-.297L69.188 58.52c.296-.445.296-1.113-.074-1.559ZM51.798 8.99c1.258-1.263 2.886-1.931 4.588-1.931s3.404.668 4.588 1.93c1.184 1.263 1.924 2.897 1.924 4.605 0 1.708-.666 3.415-1.924 4.604l-1.702 1.708-9.176-9.208 1.702-1.708Zm-3.256 3.267 9.176 9.208-11.914 12.104-9.25-9.282 11.988-12.03ZM7.546 62.677l2.886-10.99 8.066 8.095-10.952 2.896Zm13.098-3.86-9.25-9.283 12.802-12.846 9.176 9.208-12.728 12.92Zm36.852 8.168-6.216-6.312 4.588-4.604a1.08 1.08 0 0 0 0-1.56 1.07 1.07 0 0 0-1.554 0l-4.588 4.605-8.51-8.466 2.812-2.822a1.08 1.08 0 0 0 0-1.559 1.07 1.07 0 0 0-1.554 0l-2.812 2.822-3.848-3.862-4.588-4.604 4.588-4.604a1.08 1.08 0 0 0 0-1.559 1.07 1.07 0 0 0-1.554 0l-4.588 4.604-4.588-4.604-3.848-3.861 2.812-2.822a1.08 1.08 0 0 0 0-1.56 1.07 1.07 0 0 0-1.554 0l-2.812 2.822-8.584-8.688 4.588-4.604a1.08 1.08 0 0 0 0-1.56 1.07 1.07 0 0 0-1.554 0l-4.588 4.605-6.216-6.238 9.176-9.282L34.26 25.104l10.804 10.841L66.82 57.777l-9.324 9.208Z"/>
</svg>
