<svg width="83" height="71" viewBox="0 0 83 71" fill="none" xmlns="http://www.w3.org/2000/svg">
<g id="noun-methane-634078 1" clip-path="url(#clip0_201_1008)">
<g id="Group">
<path id="Vector" d="M41.9458 6.57227C40.3506 6.57215 38.765 7.23346 37.6369 8.36847C36.5092 9.50311 35.8528 11.0968 35.8521 12.7016C35.8542 14.9385 37.1797 17.1248 39.1559 18.1489C39.3548 18.2519 39.5227 18.4068 39.6419 18.5973C39.7611 18.7879 39.8272 19.0071 39.8335 19.2322L40.0799 28.4531C40.0874 28.7364 39.9996 29.014 39.8307 29.2408C39.6618 29.4677 39.4217 29.6304 39.1494 29.7027C34.3411 30.9847 30.4002 35.1167 29.3223 40.0036C29.2596 40.2887 29.1002 40.543 28.8716 40.7227C28.643 40.9025 28.3593 40.9967 28.0692 40.989L25.1659 40.914C24.9337 40.9076 24.7079 40.8364 24.5138 40.7081C24.3196 40.5799 24.1649 40.3998 24.0668 40.188C23.0933 38.0914 20.8545 36.6562 18.555 36.6526H18.5534C16.9588 36.653 15.3738 37.3142 14.2461 38.4489C13.1181 39.5839 12.4615 41.1782 12.4613 42.7836C12.4612 44.3891 13.118 45.9846 14.2461 47.1199C15.3742 48.2552 16.9596 48.9162 18.555 48.9161C20.7271 48.9159 22.8543 47.6486 23.8981 45.7316C24.0083 45.5287 24.1719 45.3603 24.3709 45.2449C24.57 45.1295 24.7968 45.0715 25.0264 45.0774L28.1875 45.1589C28.4634 45.1663 28.7291 45.2654 28.9432 45.4407C29.1573 45.616 29.3077 45.8577 29.3709 46.128C29.8531 48.1862 30.8162 50.1286 32.1592 51.7548C32.3328 51.9652 32.4335 52.2269 32.4461 52.5001C32.4587 52.7733 32.3824 53.0431 32.2289 53.2688L30.342 56.0439C30.2176 56.2267 30.0475 56.3732 29.8488 56.4686C29.6501 56.564 29.4299 56.6049 29.2104 56.5871C29.0929 56.5775 28.9749 56.5736 28.857 56.5708C27.2634 56.5722 25.6799 57.2313 24.553 58.3654C23.4249 59.5007 22.7681 61.0962 22.7682 62.7018C22.7681 64.3073 23.4249 65.9028 24.553 67.0381C25.6811 68.1734 27.2665 68.8344 28.8619 68.8343C30.4571 68.8341 32.0413 68.1734 33.1692 67.0381C34.297 65.9028 34.9541 64.3071 34.954 62.7018C34.9541 61.5406 34.6181 60.3819 33.9975 59.403C33.8658 59.1951 33.7978 58.9528 33.8018 58.7062C33.8058 58.4597 33.8818 58.2197 34.0202 58.0163L35.4565 55.9036C35.6227 55.6592 35.8693 55.4817 36.1528 55.4023C36.4363 55.3229 36.7385 55.3468 37.0063 55.4696C38.7682 56.2786 40.703 56.7033 42.6396 56.7079C46.1926 56.704 49.7238 55.2373 52.2446 52.7174C52.4477 52.5145 52.7139 52.3879 52.9986 52.3588C53.2834 52.3297 53.5694 52.3999 53.8089 52.5575L55.9796 53.985C56.1733 54.1125 56.328 54.2917 56.4265 54.5026C56.525 54.7135 56.5633 54.9477 56.5372 55.1792C56.5123 55.3991 56.4994 55.6202 56.4983 55.8416V55.8433C56.4986 57.4483 57.1554 59.043 58.2831 60.178C59.4112 61.3133 60.9966 61.9743 62.592 61.9742C64.1874 61.9743 65.7728 61.3133 66.9009 60.178C68.029 59.0427 68.6858 57.4472 68.6857 55.8416C68.6858 54.2361 68.029 52.6406 66.9009 51.5053C65.7735 50.3707 64.1895 49.7098 62.5952 49.7091H62.592C61.5323 49.7125 60.4743 50 59.5573 50.5346C59.3574 50.6511 59.1293 50.7096 58.8984 50.7035C58.6675 50.6975 58.4427 50.6271 58.2491 50.5003L55.9844 49.0124C55.7491 48.858 55.5724 48.6284 55.4827 48.3605C55.393 48.0927 55.3956 47.8022 55.49 47.536C56.0077 46.0752 56.2768 44.5253 56.2827 42.9745V42.9728C56.2812 39.8162 55.1586 36.6728 53.1621 34.2381C51.1653 31.8031 48.3085 30.0957 45.2285 29.4955C44.9493 29.4411 44.6969 29.2924 44.513 29.0741C44.329 28.8558 44.2246 28.5809 44.2169 28.2948L43.9786 19.3464C43.972 19.1069 44.0335 18.8706 44.1558 18.6651C44.2782 18.4596 44.4563 18.2935 44.6692 18.1864C46.6809 17.1749 48.0389 14.9664 48.0394 12.7032C48.0392 11.0979 47.3827 9.50349 46.2546 8.36848C45.1266 7.23346 43.5409 6.57215 41.9458 6.57227Z" fill="#4E888F"/>
</g>
</g>
<defs>
<clipPath id="clip0_201_1008">
<rect width="83" height="71" fill="white"/>
</clipPath>
</defs>
</svg>
