<svg width="100" height="91" viewBox="0 0 100 91" fill="none" xmlns="http://www.w3.org/2000/svg">
<g id="noun-news-5999080 1">
<path id="Vector" d="M27.7778 85.5011C32.8916 85.5011 37.0371 81.3438 37.0371 76.2154C37.0371 71.087 32.8916 66.9297 27.7778 66.9297C22.6641 66.9297 18.5186 71.087 18.5186 76.2154C18.5186 81.3438 22.6641 85.5011 27.7778 85.5011Z" fill="#011214"/>
<path id="Vector_2" d="M72.2223 85.5011C77.336 85.5011 81.4815 81.3438 81.4815 76.2154C81.4815 71.087 77.336 66.9297 72.2223 66.9297C67.1085 66.9297 62.963 71.087 62.963 76.2154C62.963 81.3438 67.1085 85.5011 72.2223 85.5011Z" fill="#011214"/>
<path id="Vector_3" d="M5.55554 70.6445C5.55554 73.7088 8.05554 76.216 11.1111 76.216H14.8148C14.8148 69.0474 20.6296 63.216 27.7778 63.216C34.9259 63.216 40.7407 69.0474 40.7407 76.216H59.2592C59.2592 69.0474 65.0741 63.216 72.2222 63.216C79.3704 63.216 85.1852 69.0474 85.1852 76.216H88.8889C91.9444 76.216 94.4444 73.7088 94.4444 70.6445V57.6445H5.55554V70.6445Z" fill="#011214"/>
<path id="Vector_4" d="M46.2963 53.9297H93.3518C93.074 53.5583 92.7407 53.2054 92.3703 52.9083L82.8703 45.2383L75.2037 33.7054C72.8148 30.084 68.7777 27.9297 64.4259 27.9297H46.2963V53.9297ZM50 37.2154C50 36.194 50.8333 35.3583 51.8518 35.3583H66.1111C66.7037 35.3583 67.2592 35.6368 67.6111 36.1383L75.574 47.2811C75.9815 47.8383 76.037 48.5811 75.7222 49.194C75.4074 49.8254 74.7777 50.2154 74.074 50.2154H51.8518C50.8333 50.2154 50 49.3797 50 48.3583V37.2154Z" fill="#011214"/>
<path id="Vector_5" d="M18.5185 27.9323C11.3704 27.9323 5.55554 33.7637 5.55554 40.9323V53.9323H42.5926V27.9323H40.7407V23.5866C42.0926 24.1623 43.5741 24.478 45.0926 24.478C48.0741 24.478 50.8518 23.3266 52.963 21.228L54.2592 19.9095C54.6111 19.5566 54.8148 19.0923 54.8148 18.5909C54.8148 18.108 54.6111 17.6252 54.2592 17.2909L49.0185 12.0352L51.6481 9.39803C52.3704 8.67374 52.3704 7.50374 51.6481 6.77945C50.9259 6.05517 49.7592 6.05517 49.0185 6.77945L46.4074 9.39803L41.1667 4.14231C40.4815 3.45517 39.2407 3.45517 38.5555 4.14231L37.2407 5.46088C35.1481 7.57802 33.9815 10.3637 33.9815 13.3352C33.9815 16.2137 35.0741 18.9066 37.037 21.0052V27.9323H18.5185Z" fill="#011214"/>
</g>
</svg>
