<svg width="33" height="25" viewBox="0 0 33 25" fill="none" xmlns="http://www.w3.org/2000/svg">
<path id="Path 173" fill-rule="evenodd" clip-rule="evenodd" d="M12.3096 -0.000301361C14.0556 3.37539 14.9287 7.04209 14.9287 10.9998C14.9287 15.0157 13.8665 18.3332 11.7421 20.9523C9.61778 23.5713 6.31485 24.8809 1.83335 24.8809V19.3808C3.40479 19.3808 4.55426 19.0316 5.28178 18.3332C6.0093 17.6348 6.37306 16.2961 6.37306 14.3173V13.4443H3.8147e-06V-0.000301361H12.3096ZM30.3809 -0.000301361C32.127 3.37539 33 7.04209 33 10.9998C33 15.0157 31.9378 18.3332 29.8135 20.9523C27.6891 23.5713 24.3862 24.8809 19.9047 24.8809V19.3808C21.4761 19.3808 22.6256 19.0316 23.3531 18.3332C24.0806 17.6348 24.4444 16.2961 24.4444 14.3173V13.4443H18.0713V-0.000301361H30.3809Z" fill="currentColor"/>
</svg>
