<svg width="58" height="61" viewBox="0 0 58 61" fill="none" xmlns="http://www.w3.org/2000/svg">
<g id="noun-reforestation-1170896 1" clip-path="url(#clip0_201_1014)">
<g id="Group">
<path id="Vector" fill-rule="evenodd" clip-rule="evenodd" d="M0.616305 47.9087C-0.479326 46.1493 -0.273896 46.7583 2.32823 45.3373C21.7072 34.6455 14.1063 35.7282 31.157 38.841C36.2928 39.7884 39.1004 38.9764 39.8536 43.3749C39.9906 44.0516 38.2786 45.4726 36.4298 45.5403C34.9233 45.5403 33.3483 44.4576 33.3483 42.2922C33.1429 42.9012 33.4853 44.3222 34.3755 45.2696C34.8548 45.811 27.3908 45.2019 24.1039 44.7283L19.1736 44.3899C21.2279 45.0666 23.4876 45.5403 25.8843 45.608C30.2668 45.7433 35.1972 46.4877 38.1417 46.1493C47.4546 44.8636 53.8229 40.7358 56.7674 44.9989C58 46.7583 56.2881 46.7583 53.9599 48.2471C53.549 48.5177 44.9894 50.6155 38.621 52.5102C33.2113 54.1343 27.3223 53.7283 26.7745 53.9313C25.8843 54.202 31.6364 55.1493 36.3613 53.8636C42.3188 52.2395 50.4675 49.6004 53.4805 48.8561L53.1381 49.5328L50.0567 52.0365L36.7037 58.8711C30.4038 61.0366 16.7769 57.1117 13.7639 57.9238C4.7934 60.3599 10.2716 66.5178 0.616305 47.9087Z" fill="#4E888F"/>
<path id="Vector_2" fill-rule="evenodd" clip-rule="evenodd" d="M28.6919 10.0819C28.6919 12.0443 36.1558 27.8113 33.5537 27.9466C27.3908 28.3526 29.3082 34.5782 28.0071 34.5782C24.8571 34.5782 22.392 32.6158 20.3377 35.5932C19.6529 36.6083 35.8819 38.5707 35.8819 38.5707C39.8536 39.5857 41.4286 41.9541 39.7167 45.2023C44.8524 44.2549 51.3577 41.2098 55.6718 42.8338C56.425 43.1045 56.0827 40.9391 55.7403 40.1947C54.987 38.5707 53.8229 38.6383 52.7958 37.488C52.2479 36.8113 51.4262 33.6985 47.5915 32.8865C44.1677 32.1421 43.072 34.5782 42.9351 34.1722C42.2503 32.6834 43.6883 33.0218 40.5384 29.706C37.8678 26.7962 38.0732 26.3225 37.9362 23.3451C37.5939 18.4052 43.5514 18.6082 45.6741 12.5857L35.8135 20.3676C35.3341 21.112 35.1972 22.6007 33.2798 18.4729C33.2798 18.4729 28.6919 7.8488 28.6919 10.0819Z" fill="#4E888F"/>
<path id="Vector_3" fill-rule="evenodd" clip-rule="evenodd" d="M32.9374 10.3529C31.294 3.92429 29.1027 0.60849 22.5289 0.0671352C17.804 -0.338881 13.9693 2.63857 13.7639 3.4506C13.5584 4.26263 16.6399 4.26263 18.0094 6.29271C19.7899 8.99949 17.941 15.4281 28.144 17.6612C29.4451 17.8642 29.3082 17.5258 28.0756 13.398L25.4734 5.41301L31.0886 10.8266C32.5266 12.5183 34.5124 16.7138 32.9374 10.3529Z" fill="#4E888F"/>
<path id="Vector_4" fill-rule="evenodd" clip-rule="evenodd" d="M39.9905 13.7374C41.2231 8.72987 42.6611 6.29378 48.7556 5.68475C51.2892 5.41408 53.8229 5.34641 55.9457 6.76746C60.3282 9.60957 56.3565 9.13589 56.1511 9.20356C50.2621 10.2186 55.8772 17.4592 46.9067 19.8953C36.4297 22.7374 46.4274 18.1359 47.1122 11.572C47.2491 10.6246 47.523 9.60957 45.3318 10.76C40.3329 13.4667 39.1003 17.4592 39.9905 13.7374Z" fill="#4E888F"/>
</g>
</g>
<defs>
<clipPath id="clip0_201_1014">
<rect width="58" height="61" fill="white"/>
</clipPath>
</defs>
</svg>
