<svg width="55" height="55" viewBox="0 0 55 55" fill="none" xmlns="http://www.w3.org/2000/svg">
<g id="Right Arrow">
<path id="Vector" d="M27.4948 4.58203C14.8906 4.58203 4.57812 14.8945 4.57812 27.4987C4.57812 40.1029 14.8906 50.4154 27.4948 50.4154C40.099 50.4154 50.4115 40.1029 50.4115 27.4987C50.4115 14.8945 40.099 4.58203 27.4948 4.58203ZM35.974 29.1029L29.099 35.9779C28.1823 36.8945 26.8073 36.8945 25.8906 35.9779C24.974 35.0612 24.974 33.6862 25.8906 32.7695L28.8698 29.7904H20.6198C19.2448 29.7904 18.3281 28.8737 18.3281 27.4987C18.3281 26.1237 19.2448 25.207 20.6198 25.207H28.8698L25.8906 22.2279C24.974 21.3112 24.974 19.9362 25.8906 19.0195C26.8073 18.1029 28.1823 18.1029 29.099 19.0195L35.974 25.8945C36.8906 26.8112 36.8906 28.1862 35.974 29.1029Z" fill="#4E888F"/>
</g>
</svg>
