<svg xmlns="http://www.w3.org/2000/svg" width="89" height="70" fill="none" viewBox="0 0 89 70">
  <path fill="#011214" d="M35.971 55.13c-11.221 0-20.35-9.03-20.35-20.129 0-11.1 9.129-20.13 20.35-20.13 6.77 0 13.08 3.32 16.876 8.877a1.925 1.925 0 0 0 2.652.508 1.875 1.875 0 0 0 .513-2.623c-4.507-6.6-12-10.541-20.04-10.541C22.643 11.092 11.8 21.818 11.8 35c0 13.183 10.842 23.907 24.171 23.907 13.329 0 24.17-10.724 24.17-23.907a24.15 24.15 0 0 0-.192-3.034 1.908 1.908 0 0 0-2.135-1.637 1.894 1.894 0 0 0-1.656 2.113c.11.843.163 1.702.163 2.558 0 11.1-9.13 20.13-20.35 20.13Z"/>
  <path fill="#011214" d="M66.996 27.692a1.89 1.89 0 0 0-1.554 2.188 29.68 29.68 0 0 1 .445 5.12c0 16.318-13.42 29.592-29.916 29.592C19.475 64.592 6.054 51.317 6.054 35S19.475 5.409 35.971 5.409c10.458 0 19.985 5.264 25.483 14.08a1.921 1.921 0 0 0 2.628.615 1.876 1.876 0 0 0 .623-2.6A33.81 33.81 0 0 0 52.667 5.997 34.032 34.032 0 0 0 35.97 1.631C17.368 1.63 2.234 16.599 2.234 35s15.135 33.37 33.737 33.37C54.573 68.37 69.71 53.402 69.71 35c0-1.937-.169-3.878-.503-5.771a1.91 1.91 0 0 0-2.21-1.538Z"/>
  <path fill="#011214" d="m86.55 19.235-4.635-1.576 1.661-4.562a1.877 1.877 0 0 0-.516-2.043 1.928 1.928 0 0 0-2.107-.302l-8.338 3.953a1.89 1.89 0 0 0-1.068 1.45l-.607 4.418-21.751 7.285a15.1 15.1 0 0 0-13.216-7.757c-8.306 0-15.064 6.685-15.064 14.9 0 8.216 6.756 14.9 15.062 14.9s15.063-6.685 15.063-14.9c0-1.25-.156-2.461-.451-3.621l21.8-7.3 4.22 2.512a1.923 1.923 0 0 0 1.811.085l8.34-3.95a1.888 1.888 0 0 0 1.082-1.816 1.898 1.898 0 0 0-1.286-1.676ZM47.214 35c0 6.131-5.044 11.119-11.243 11.119-6.2 0-11.243-4.988-11.243-11.12 0-6.13 5.044-11.12 11.243-11.12 4.007 0 7.53 2.088 9.52 5.215L35.359 32.49a1.883 1.883 0 0 0-1.196 2.395 1.91 1.91 0 0 0 2.421 1.185l10.363-3.472c.173.775.268 1.576.268 2.403ZM77.69 22.83l-2.965-1.768.467-3.39 3.208-1.521-.739 2.027c-.173.477-.145 1 .075 1.459.22.456.618.804 1.1.97l2.063.7-3.209 1.522Z"/>
</svg>
