<svg width="26" height="26" viewBox="0 0 26 26" fill="none" xmlns="http://www.w3.org/2000/svg">
<g id="Tick">
<path id="Vector" d="M18.6572 13.4255V20.0347C18.6572 20.3837 18.5421 20.7068 18.3478 20.9668C18.0631 21.3477 17.6094 21.594 17.0979 21.594H3.7475C3.2353 21.594 2.78095 21.3477 2.4969 20.9668C2.4761 20.9388 2.45595 20.9102 2.4371 20.8803C2.27381 20.6286 2.1871 20.3348 2.1875 20.0347V6.68428C2.1875 5.82238 2.8856 5.125 3.7475 5.125H17.0979C17.6737 5.125 18.1769 5.437 18.4466 5.90175L16.3003 8.04863L11.5501 12.7995L8.09015 9.3396C7.47915 8.7286 6.2578 8.7286 5.6481 9.3396L4.2233 10.7637C4.00685 10.9802 3.8671 11.2733 3.8047 11.5885C3.689 12.1625 3.82875 12.8118 4.2233 13.2064L10.3288 19.3119C10.9391 19.9222 12.1598 19.9222 12.7708 19.3119L14.1956 17.8871L18.6572 13.4255Z" fill="#CCE9FF"/>
<path id="Vector_2" d="M23.3538 8.72868L18.6576 13.4256L14.196 17.8872L12.7712 19.312C12.1602 19.9224 10.9395 19.9224 10.3291 19.312L4.22366 13.2066C3.82911 12.812 3.68936 12.1626 3.80506 11.5887C3.86746 11.2734 4.00721 10.9803 4.22366 10.7639L5.64846 9.33975C6.25816 8.72875 7.47951 8.72875 8.09051 9.33975L11.5505 12.7996L16.3007 8.04878L18.447 5.9019L19.487 4.86255C20.098 4.25155 21.3193 4.25155 21.929 4.86255L23.3538 6.2867C23.5202 6.45368 23.6418 6.66565 23.7172 6.89828C23.9193 7.51838 23.7978 8.28473 23.3538 8.72868Z" fill="#4E888F"/>
</g>
</svg>
