<svg width="101" height="134" viewBox="0 0 101 134" fill="none" xmlns="http://www.w3.org/2000/svg">
<g id="logo-svg 3" clip-path="url(#clip0_100_1906)">
<g id="Group">
<path id="Vector" d="M101 0H0V134H101V0Z" fill="white"/>


<g id="Clip path group">
<mask id="mask0_100_1906" style="mask-type:luminance" maskUnits="userSpaceOnUse" x="23" y="9" width="55" height="63">
<g id="SvgjsClipPath1010">
<path id="Vector_4" d="M23.7754 9.7168H77.2242V71.9508H23.7754V9.7168Z" fill="white"/>
</g>
</mask>
<g mask="url(#mask0_100_1906)">
<g id="Group_4">
<g id="Clip path group_2">
<mask id="mask1_100_1906" style="mask-type:luminance" maskUnits="userSpaceOnUse" x="23" y="9" width="55" height="63">
<g id="SvgjsClipPath1008">
<path id="Vector_5" d="M23.7754 9.7168H77.2242V71.9508H23.7754V9.7168Z" fill="white"/>
</g>
</mask>
<g mask="url(#mask1_100_1906)">
<g id="Group_5">
<path id="Vector_6" d="M48.6766 24.7445L48.4406 24.607L43.874 21.9486L43.1347 21.5183L40.0828 19.7419L39.8419 19.6016L39.7958 19.5747L38.2841 18.6947L36.6813 17.7613L32.2528 20.3393C29.4762 21.9552 26.8403 23.4893 23.7754 25.275V56.3926C26.8403 58.1783 29.4762 59.7126 32.2528 61.3285L35.7703 63.3754V32.7892C35.7703 32.4607 35.9441 32.1572 36.2262 31.993C38.7575 30.5188 40.9465 29.2446 43.1355 27.9706C44.92 26.9306 46.706 25.8923 48.6766 24.7445ZM37.5938 48.3477C39.9324 49.7099 41.9916 50.9084 44.0471 52.1048C46.1026 53.3011 48.1599 54.4985 50.5001 55.8614C53.565 54.0758 56.2012 52.5415 58.9779 50.9254L63.4064 48.3477V33.3199L58.9779 30.7423C56.2017 29.1263 53.5645 27.5915 50.5001 25.8062C48.1614 27.1682 46.1024 28.3667 44.0471 29.563C41.9917 30.7594 39.934 31.957 37.5938 33.3197V48.3477ZM72.7294 22.6584C69.8409 20.977 67.0993 19.3817 63.8627 17.4958L58.9786 14.6528C56.2019 13.0367 53.5657 11.5024 50.5009 9.7168C48.1607 11.0797 46.1042 12.2766 44.0478 13.4736C42.2624 14.5129 40.4771 15.5515 38.5058 16.6996L39.1988 17.1041L44.0478 19.9269C46.2361 21.2008 48.4258 22.4751 50.9569 23.9492C54.2184 25.8494 56.9771 27.4551 59.8902 29.1506L64.7748 31.9939C65.0569 32.1581 65.2307 32.4617 65.2307 32.7901V47.286L67.0897 46.2034L67.2673 46.1L67.8975 45.7323L72.73 42.9189L77.2258 40.3021V25.2757L72.7294 22.6584ZM64.7745 49.6746L59.8895 52.5181C56.9763 54.2135 54.2182 55.8191 50.9564 57.7193C50.6743 57.8836 50.3267 57.8836 50.0446 57.7193C47.5137 56.245 45.3247 54.9709 43.1357 53.697C41.3504 52.6579 39.5651 51.6191 37.5942 50.4712V64.4372C39.9344 65.7999 41.9906 66.9969 44.0474 68.194C46.1042 69.391 48.1603 70.5877 50.5005 71.9506C53.5654 70.165 56.2015 68.6307 58.9783 67.0146L63.8627 64.1716C67.099 62.286 69.8405 60.6904 72.7291 59.0091L77.2249 56.3923V42.4261L73.6412 44.5124C70.7519 46.1934 68.0108 47.7889 64.7745 49.6746Z" fill="#4E888F"/>
</g>
</g>
</g>
</g>
</g>
</g>
</g>
</g>
<defs>
<clipPath id="clip0_100_1906">
<rect width="101" height="134" fill="white"/>
</clipPath>
</defs>
</svg>
