<svg width="101" height="134" viewBox="0 0 101 134" fill="none" xmlns="http://www.w3.org/2000/svg">
<g id="logo-svg 3" clip-path="url(#clip0_100_1906)">
<g id="Group">
<path id="Vector" d="M101 0H0V134H101V0Z" />
<g id="Group_2">
<path id="Vector_2" d="M20.4409 91.7298C19.0721 91.7298 17.9855 91.31 17.1811 90.4705C16.3768 89.6309 15.9746 88.5139 15.9746 87.1195C15.9746 86.0665 16.1898 85.1274 16.6202 84.302C17.0506 83.4767 17.6398 82.8329 18.3877 82.3704C19.1356 81.908 19.9894 81.6767 20.9489 81.6767C21.5416 81.6767 22.1061 81.7728 22.6423 81.9649C23.1786 82.157 23.5878 82.4095 23.87 82.7226C24.0817 82.9787 24.1875 83.1922 24.1875 83.3629C24.1875 83.4767 24.1699 83.5657 24.1346 83.6297C24.0993 83.6937 24.0323 83.7756 23.9335 83.8752L23.0657 84.5795H22.9175L22.1978 83.5977C21.9861 83.2989 21.7321 83.0605 21.4358 82.8827C21.1394 82.7048 20.7655 82.6159 20.3139 82.6159C19.566 82.6159 18.9804 82.9289 18.557 83.555C18.1337 84.1811 17.922 85.042 17.922 86.1376C17.922 86.8064 18.0314 87.4325 18.2501 88.0159C18.4688 88.5993 18.8357 89.0689 19.3508 89.4246C19.8659 89.7804 20.5679 89.9582 21.457 89.9582C21.8521 89.9582 22.2754 89.8906 22.727 89.7555C23.1786 89.6203 23.6584 89.4175 24.1664 89.1471H24.2299V89.4033C23.9053 90.0578 23.4114 90.6092 22.7482 91.0574C22.0849 91.5057 21.3158 91.7298 20.4409 91.7298ZM26.1972 91.5163V91.1748L27.5308 90.4918V77.9415L26.2607 76.853V76.6822L29.3723 75.5083H29.5417V90.4918L30.8541 91.1748V91.5163H26.1972ZM35.2349 79.2008C34.8539 79.2008 34.5364 79.0728 34.2824 78.8166C34.0284 78.5605 33.9014 78.2403 33.9014 77.8561C33.9014 77.4577 34.0284 77.134 34.2824 76.885C34.5364 76.636 34.8539 76.5115 35.2349 76.5115C35.616 76.5115 35.9335 76.636 36.1875 76.885C36.4415 77.134 36.5685 77.4577 36.5685 77.8561C36.5685 78.2403 36.4415 78.5605 36.1875 78.8166C35.9335 79.0728 35.616 79.2008 35.2349 79.2008ZM32.9489 91.5163V91.1748L34.3036 90.4918V84.11L33.0124 83.0214V82.8507L36.1451 81.6767H36.2933V90.4918L37.6057 91.1748V91.5163H32.9489ZM39.7858 91.5163V91.1748L41.1405 90.4918V84.11L39.8493 83.0428V82.872L42.7704 81.6767H42.9185L43.1091 83.2562H43.2149C43.737 82.7297 44.238 82.3348 44.7178 82.0716C45.1976 81.8084 45.7338 81.6767 46.3265 81.6767C47.0038 81.6767 47.5824 81.8297 48.0622 82.1356C48.542 82.4416 48.8525 82.8933 48.9936 83.491H49.0782C49.6568 82.8791 50.2001 82.4238 50.7081 82.125C51.2162 81.8261 51.7877 81.6767 52.4227 81.6767C53.2412 81.6767 53.9079 81.8866 54.423 82.3064C54.9381 82.7261 55.1956 83.3558 55.1956 84.1953V90.4918L56.5503 91.1748V91.5163H51.7877V91.1748L53.2059 90.4918V85.1772C53.2059 84.5653 53.0295 84.1064 52.6767 83.8005C52.3239 83.4945 51.8723 83.3416 51.322 83.3416C50.8845 83.3416 50.4682 83.4163 50.0731 83.5657C49.678 83.7151 49.3464 83.9321 49.0782 84.2167V90.4918L50.4541 91.1748V91.5163H45.755V91.1748L47.0885 90.4918V85.1772C47.0885 84.5653 46.9156 84.1064 46.5699 83.8005C46.2242 83.4945 45.7761 83.3416 45.2258 83.3416C44.8871 83.3416 44.5167 83.3985 44.1145 83.5123C43.7123 83.6262 43.3842 83.804 43.1302 84.0459V90.4918L44.4214 91.1748V91.5163H39.7858ZM60.6773 91.7298C59.9999 91.7298 59.439 91.527 58.9945 91.1215C58.5499 90.7159 58.3277 90.1574 58.3277 89.446C58.3277 88.7487 58.5782 88.1475 59.0791 87.6424C59.5801 87.1372 60.4515 86.7353 61.6933 86.4365L63.7042 85.9669V84.4728C63.7042 83.9605 63.5172 83.5337 63.1433 83.1922C62.7693 82.8507 62.3354 82.6799 61.8415 82.6799C61.3193 82.6799 60.956 82.8151 60.7513 83.0854C60.5467 83.3558 60.4444 83.7258 60.4444 84.1953V84.8783L60.3386 84.9851H59.1744C58.9627 84.9851 58.8181 84.9459 58.7404 84.8677C58.6628 84.7894 58.624 84.6222 58.624 84.3661C58.624 84.053 58.7193 83.7364 58.9098 83.4163C59.1003 83.0961 59.3931 82.8151 59.7882 82.5732C60.2116 82.3028 60.642 82.0858 61.0794 81.9222C61.5169 81.7585 61.9826 81.6767 62.4765 81.6767C63.0127 81.6767 63.5313 81.7514 64.0323 81.9008C64.5332 82.0503 64.9389 82.3028 65.2494 82.6586C65.5599 83.0143 65.7151 83.491 65.7151 84.0886V90.0436C65.8139 90.1432 65.9515 90.2286 66.1279 90.2997C66.3042 90.3709 66.5477 90.4064 66.8581 90.4064H67.599L67.6837 90.4491V90.5772C67.5143 90.876 67.2568 91.1428 66.911 91.3776C66.5653 91.6124 66.1455 91.7298 65.6516 91.7298C65.1718 91.7298 64.7837 91.6124 64.4874 91.3776C64.191 91.1428 63.9794 90.8191 63.8524 90.4064H63.7042C63.3373 90.7764 62.8892 91.0895 62.3601 91.3456C61.8309 91.6017 61.2699 91.7298 60.6773 91.7298ZM60.2539 88.9764C60.2539 89.8586 60.769 90.2997 61.7991 90.2997C62.1096 90.2997 62.4095 90.2677 62.6987 90.2037C62.988 90.1396 63.3232 90.0294 63.7042 89.8728V86.7139C62.6882 86.9131 61.9332 87.1266 61.4393 87.3542C60.9454 87.5819 60.6243 87.8274 60.4762 88.0906C60.328 88.3539 60.2539 88.6491 60.2539 88.9764ZM72.552 91.7298C71.8747 91.7298 71.2996 91.5448 70.8269 91.1748C70.3542 90.8049 70.1178 90.2855 70.1178 89.6167V82.872H68.4244V82.7012L70.266 81.8902L71.917 79.5423H72.1075V81.8902H74.9228V82.872H72.1075V89.2112C72.1075 89.5811 72.2663 89.8515 72.5838 90.0223C72.9013 90.193 73.2788 90.2784 73.7162 90.2784C73.9844 90.2784 74.2313 90.2642 74.4571 90.2357C74.6829 90.2072 74.8875 90.1717 75.071 90.129H75.1345V90.3851C74.9651 90.7124 74.6582 91.0183 74.2137 91.3029C73.7692 91.5875 73.2153 91.7298 72.552 91.7298ZM81.4204 91.7298C80.0374 91.7298 78.9438 91.31 78.1394 90.4705C77.3351 89.6309 76.9329 88.5139 76.9329 87.1195C76.9329 86.0665 77.1481 85.1274 77.5785 84.302C78.0089 83.4767 78.5804 82.8329 79.293 82.3704C80.0057 81.908 80.7783 81.6767 81.6109 81.6767C82.7398 81.6767 83.6218 82.0645 84.2568 82.84C84.8918 83.6155 85.2164 84.7289 85.2305 86.1803L85.1246 86.287H78.8803C78.8944 86.9416 79.0179 87.5463 79.2507 88.1013C79.4835 88.6562 79.8575 89.1045 80.3726 89.446C80.8876 89.7875 81.5826 89.9582 82.4576 89.9582C83.2619 89.9582 84.1721 89.6879 85.1881 89.1471H85.2516V89.4033C84.913 90.0578 84.412 90.6092 83.7488 91.0574C83.0855 91.5057 82.3094 91.7298 81.4204 91.7298ZM81.2299 82.6159C80.6089 82.6159 80.0974 82.8507 79.6952 83.3202C79.293 83.7898 79.0355 84.4515 78.9226 85.3052H83.4313C83.2901 84.3376 83.0361 83.6475 82.6692 83.2348C82.3023 82.8222 81.8225 82.6159 81.2299 82.6159ZM21.4364 113.074C20.7449 113.074 20.124 112.896 19.5737 112.54C19.0233 112.184 18.5859 111.683 18.2613 111.035C17.9367 110.388 17.7744 109.616 17.7744 108.72C17.7744 107.51 18.0038 106.482 18.4624 105.635C18.921 104.789 19.5349 104.141 20.3039 103.693C21.073 103.245 21.9233 103.021 22.8546 103.021C23.2356 103.021 23.5743 103.035 23.8706 103.063C24.167 103.092 24.4351 103.142 24.675 103.213V99.2856L23.278 98.197V98.0263L26.5166 96.8524H26.6647V111.9L28.1676 112.519V112.86H24.8867L24.6962 111.772H24.5692C24.0329 112.227 23.5179 112.558 23.024 112.764C22.53 112.971 22.0009 113.074 21.4364 113.074ZM19.7853 108.186C19.7853 109.353 20.0746 110.203 20.6532 110.737C21.2318 111.27 21.9233 111.537 22.7276 111.537C23.405 111.537 24.0541 111.338 24.675 110.939V104.92C24.3646 104.65 24.0576 104.44 23.7542 104.291C23.4508 104.141 23.1016 104.067 22.7064 104.067C22.1702 104.067 21.6834 104.198 21.2459 104.462C20.8084 104.725 20.4556 105.159 20.1875 105.763C19.9194 106.368 19.7853 107.176 19.7853 108.186ZM34.5589 113.074C33.176 113.074 32.0823 112.654 31.278 111.815C30.4736 110.975 30.0714 109.858 30.0714 108.464C30.0714 107.411 30.2866 106.471 30.717 105.646C31.1475 104.821 31.719 104.177 32.4316 103.714C33.1442 103.252 33.9168 103.021 34.7494 103.021C35.8784 103.021 36.7603 103.409 37.3953 104.184C38.0304 104.96 38.3549 106.073 38.369 107.524L38.2632 107.631H32.0188C32.033 108.286 32.1564 108.89 32.3893 109.445C32.6221 110 32.9961 110.449 33.5111 110.79C34.0262 111.132 34.7212 111.302 35.5961 111.302C36.4005 111.302 37.3107 111.032 38.3267 110.491H38.3902V110.747C38.0515 111.402 37.5506 111.953 36.8873 112.401C36.2241 112.85 35.448 113.074 34.5589 113.074ZM34.3684 103.96C33.7475 103.96 33.236 104.195 32.8338 104.664C32.4316 105.134 32.1741 105.796 32.0612 106.649H36.5698C36.4287 105.682 36.1747 104.992 35.8078 104.579C35.4409 104.166 34.9611 103.96 34.3684 103.96ZM45.1212 113.074C43.7524 113.074 42.6658 112.654 41.8615 111.815C41.0571 110.975 40.6549 109.858 40.6549 108.464C40.6549 107.411 40.8701 106.471 41.3005 105.646C41.7309 104.821 42.3201 104.177 43.068 103.714C43.8159 103.252 44.6697 103.021 45.6292 103.021C46.2219 103.021 46.7864 103.117 47.3226 103.309C47.8589 103.501 48.2681 103.754 48.5503 104.067C48.762 104.323 48.8679 104.536 48.8679 104.707C48.8679 104.821 48.8502 104.91 48.8149 104.974C48.7797 105.038 48.7126 105.12 48.6138 105.219L47.746 105.924H47.5978L46.8781 104.942C46.6664 104.643 46.4124 104.405 46.1161 104.227C45.8197 104.049 45.4458 103.96 44.9942 103.96C44.2463 103.96 43.6607 104.273 43.2373 104.899C42.814 105.525 42.6023 106.386 42.6023 107.482C42.6023 108.15 42.7117 108.777 42.9304 109.36C43.1491 109.943 43.516 110.413 44.0311 110.769C44.5462 111.124 45.2482 111.302 46.1373 111.302C46.5324 111.302 46.9557 111.235 47.4073 111.1C47.8589 110.964 48.3387 110.762 48.8467 110.491H48.9102V110.747C48.5856 111.402 48.0917 111.953 47.4285 112.401C46.7652 112.85 45.9961 113.074 45.1212 113.074ZM55.746 113.074C54.8006 113.074 53.9715 112.85 53.2589 112.401C52.5462 111.953 51.9888 111.349 51.5866 110.587C51.1845 109.826 50.9834 108.976 50.9834 108.037C50.9834 107.097 51.1845 106.247 51.5866 105.486C51.9888 104.725 52.5462 104.124 53.2589 103.682C53.9715 103.241 54.8006 103.021 55.746 103.021C56.6915 103.021 57.517 103.241 58.2226 103.682C58.9282 104.124 59.4821 104.725 59.8843 105.486C60.2864 106.247 60.4875 107.097 60.4875 108.037C60.4875 108.976 60.2864 109.826 59.8843 110.587C59.4821 111.349 58.9282 111.953 58.2226 112.401C57.517 112.85 56.6915 113.074 55.746 113.074ZM56.0212 112.135C56.5574 112.135 56.9949 111.957 57.3336 111.601C57.6723 111.245 57.9192 110.79 58.0744 110.235C58.2297 109.68 58.3073 109.09 58.3073 108.464C58.3073 107.709 58.212 106.987 58.0215 106.297C57.831 105.607 57.5311 105.041 57.1219 104.6C56.7127 104.159 56.1764 103.939 55.5132 103.939C54.977 103.939 54.5324 104.113 54.1796 104.462C53.8269 104.81 53.5693 105.262 53.407 105.817C53.2448 106.372 53.1636 106.962 53.1636 107.588C53.1636 108.343 53.2624 109.068 53.46 109.765C53.6575 110.463 53.968 111.032 54.3913 111.473C54.8147 111.914 55.358 112.135 56.0212 112.135ZM66.371 113.074C65.6795 113.074 65.0586 112.896 64.5083 112.54C63.9579 112.184 63.5205 111.683 63.1959 111.035C62.8713 110.388 62.709 109.616 62.709 108.72C62.709 107.51 62.9384 106.482 63.397 105.635C63.8556 104.789 64.4695 104.141 65.2385 103.693C66.0076 103.245 66.8578 103.021 67.7892 103.021C68.1702 103.021 68.5089 103.035 68.8052 103.063C69.1016 103.092 69.3697 103.142 69.6096 103.213V99.2856L68.2126 98.197V98.0263L71.4512 96.8524H71.5993V111.9L73.1022 112.519V112.86H69.8213L69.6308 111.772H69.5038C68.9675 112.227 68.4524 112.558 67.9585 112.764C67.4646 112.971 66.9355 113.074 66.371 113.074ZM64.7199 108.186C64.7199 109.353 65.0092 110.203 65.5878 110.737C66.1664 111.27 66.8578 111.537 67.6622 111.537C68.3396 111.537 68.9887 111.338 69.6096 110.939V104.92C69.2991 104.65 68.9922 104.44 68.6888 104.291C68.3854 104.141 68.0362 104.067 67.641 104.067C67.1048 104.067 66.6179 104.198 66.1805 104.462C65.743 104.725 65.3902 105.159 65.1221 105.763C64.854 106.368 64.7199 107.176 64.7199 108.186ZM79.4935 113.074C78.1106 113.074 77.0169 112.654 76.2126 111.815C75.4082 110.975 75.006 109.858 75.006 108.464C75.006 107.411 75.2212 106.471 75.6516 105.646C76.082 104.821 76.6536 104.177 77.3662 103.714C78.0788 103.252 78.8514 103.021 79.684 103.021C80.8129 103.021 81.6949 103.409 82.3299 104.184C82.965 104.96 83.2895 106.073 83.3036 107.524L83.1978 107.631H76.9534C76.9675 108.286 77.091 108.89 77.3239 109.445C77.5567 110 77.9307 110.449 78.4457 110.79C78.9608 111.132 79.6558 111.302 80.5307 111.302C81.3351 111.302 82.2453 111.032 83.2613 110.491H83.3248V110.747C82.9861 111.402 82.4852 111.953 81.8219 112.401C81.1587 112.85 80.3825 113.074 79.4935 113.074ZM79.303 103.96C78.6821 103.96 78.1705 104.195 77.7684 104.664C77.3662 105.134 77.1087 105.796 76.9958 106.649H81.5044C81.3633 105.682 81.1093 104.992 80.7424 104.579C80.3755 104.166 79.8957 103.96 79.303 103.96Z" fill="#404040"/>
</g>
<g id="Group_3">
<path id="Vector_3" d="M11.3033 123.043C11.084 123.043 10.8829 123.002 10.7001 122.918C10.5173 122.835 10.3577 122.719 10.221 122.572C10.0844 122.425 9.97861 122.256 9.90357 122.066C9.82853 121.876 9.79102 121.674 9.79102 121.46C9.79102 121.173 9.85451 120.911 9.9815 120.675C10.1085 120.438 10.2855 120.25 10.5125 120.11C10.7396 119.97 11.0012 119.9 11.2976 119.9C11.5785 119.9 11.8267 119.965 12.0422 120.095C12.2577 120.225 12.4174 120.401 12.5213 120.622L12.1403 120.744C12.0556 120.589 11.9373 120.468 11.7853 120.381C11.6333 120.293 11.4649 120.25 11.2802 120.25C11.0801 120.25 10.8973 120.302 10.7319 120.407C10.5664 120.512 10.4346 120.655 10.3365 120.838C10.2384 121.02 10.1893 121.228 10.1893 121.46C10.1893 121.689 10.2393 121.897 10.3394 122.083C10.4394 122.269 10.5722 122.418 10.7377 122.528C10.9031 122.639 11.0859 122.694 11.286 122.694C11.4168 122.694 11.5429 122.671 11.6641 122.624C11.7853 122.578 11.8911 122.515 11.9816 122.435C12.072 122.356 12.1326 122.269 12.1634 122.176L12.5501 122.293C12.4962 122.436 12.4068 122.565 12.2817 122.68C12.1566 122.794 12.0104 122.883 11.843 122.947C11.6756 123.011 11.4957 123.043 11.3033 123.043ZM12.9827 122.112C12.9827 121.922 13.0366 121.758 13.1444 121.62C13.2521 121.483 13.4012 121.376 13.5917 121.3C13.7822 121.225 14.0025 121.187 14.2526 121.187C14.3988 121.187 14.5508 121.198 14.7086 121.222C14.8664 121.245 15.0069 121.28 15.13 121.326V121.07C15.13 120.814 15.055 120.611 14.9049 120.459C14.7548 120.308 14.547 120.232 14.2815 120.232C14.1199 120.232 13.9611 120.262 13.8053 120.322C13.6494 120.383 13.4868 120.471 13.3175 120.587L13.1675 120.308C13.3637 120.172 13.5561 120.07 13.7447 120.002C13.9332 119.934 14.1256 119.9 14.3219 119.9C14.6913 119.9 14.9838 120.007 15.1993 120.221C15.4148 120.434 15.5225 120.729 15.5225 121.105V122.508C15.5225 122.562 15.534 122.602 15.5571 122.627C15.5802 122.653 15.6168 122.667 15.6668 122.671V122.985C15.6245 122.989 15.5879 122.993 15.5571 122.997C15.5263 123.001 15.4879 122.997 15.4879 122.997C15.3917 122.993 15.3185 122.962 15.2685 122.904C15.2185 122.846 15.1916 122.784 15.1877 122.718L15.1819 122.496C15.0473 122.671 14.8722 122.806 14.6567 122.901C14.4412 122.996 14.2218 123.043 13.9986 123.043C13.8062 123.043 13.6321 123.002 13.4763 122.918C13.3204 122.835 13.1992 122.722 13.1126 122.581C13.026 122.439 12.9827 122.283 12.9827 122.112ZM14.9972 122.345C15.0396 122.291 15.0723 122.238 15.0954 122.188C15.1184 122.137 15.13 122.093 15.13 122.054V121.612C14.9992 121.561 14.8635 121.522 14.7231 121.495C14.5826 121.468 14.4412 121.455 14.2988 121.455C14.0179 121.455 13.7908 121.511 13.6177 121.623C13.4445 121.736 13.3579 121.889 13.3579 122.083C13.3579 122.196 13.3868 122.301 13.4445 122.4C13.5022 122.499 13.5869 122.581 13.6985 122.645C13.8101 122.709 13.9409 122.741 14.091 122.741C14.2796 122.741 14.4556 122.704 14.6192 122.63C14.7827 122.557 14.9087 122.461 14.9972 122.345ZM17.9294 120.302C17.6677 120.31 17.4378 120.384 17.2396 120.523C17.0414 120.663 16.9019 120.855 16.8211 121.099V122.985H16.4286V119.953H16.798V120.68C16.9019 120.467 17.0395 120.294 17.2108 120.162C17.382 120.03 17.5638 119.957 17.7562 119.941C17.7947 119.937 17.8284 119.935 17.8572 119.935C17.8861 119.935 17.9294 119.941 17.9294 119.941V120.302ZM19.984 123.043C19.7493 123.043 19.5319 122.982 19.3318 122.86C19.1317 122.738 18.9758 122.584 18.8642 122.397V122.985H18.5121V118.736H18.9046V120.587C19.0393 120.382 19.2009 120.216 19.3895 120.09C19.578 119.964 19.7974 119.9 20.0475 119.9C20.2592 119.9 20.4487 119.945 20.6161 120.034C20.7835 120.124 20.9268 120.243 21.0461 120.392C21.1654 120.542 21.2558 120.71 21.3174 120.899C21.379 121.087 21.4097 121.28 21.4097 121.478C21.4097 121.691 21.3741 121.891 21.303 122.077C21.2318 122.264 21.1308 122.429 20.9999 122.575C20.8691 122.72 20.718 122.835 20.5468 122.918C20.3756 123.002 20.188 123.043 19.984 123.043ZM19.8917 122.694C20.0533 122.694 20.2034 122.661 20.3419 122.595C20.4804 122.529 20.5997 122.438 20.6998 122.322C20.7998 122.205 20.8768 122.074 20.9306 121.929C20.9845 121.783 21.0115 121.633 21.0115 121.478C21.0115 121.264 20.9662 121.064 20.8758 120.875C20.7854 120.687 20.6603 120.536 20.5006 120.421C20.3409 120.307 20.1533 120.25 19.9378 120.25C19.7839 120.25 19.6406 120.285 19.5078 120.354C19.375 120.424 19.2577 120.516 19.1557 120.631C19.0537 120.745 18.97 120.871 18.9046 121.006V121.949C18.92 122.054 18.9604 122.152 19.0258 122.243C19.0913 122.334 19.173 122.413 19.2711 122.479C19.3693 122.545 19.4722 122.597 19.58 122.636C19.6877 122.675 19.7916 122.694 19.8917 122.694ZM23.4124 123.043C23.1969 123.043 22.9977 123.002 22.8149 122.918C22.6322 122.835 22.4744 122.72 22.3416 122.575C22.2089 122.429 22.1059 122.263 22.0328 122.074C21.9597 121.886 21.9231 121.687 21.9231 121.478C21.9231 121.261 21.9597 121.058 22.0328 120.87C22.1059 120.681 22.2098 120.515 22.3445 120.369C22.4792 120.224 22.6379 120.109 22.8207 120.026C23.0035 119.942 23.2026 119.9 23.4181 119.9C23.6336 119.9 23.8318 119.942 24.0127 120.026C24.1935 120.109 24.3513 120.224 24.486 120.369C24.6207 120.515 24.7246 120.681 24.7977 120.87C24.8708 121.058 24.9074 121.261 24.9074 121.478C24.9074 121.687 24.8708 121.886 24.7977 122.074C24.7246 122.263 24.6216 122.429 24.4889 122.575C24.3561 122.72 24.1983 122.835 24.0156 122.918C23.8328 123.002 23.6317 123.043 23.4124 123.043ZM22.3214 121.484C22.3214 121.709 22.3705 121.913 22.4686 122.098C22.5667 122.282 22.6985 122.428 22.864 122.534C23.0295 122.641 23.2123 122.694 23.4124 122.694C23.6125 122.694 23.7952 122.64 23.9607 122.531C24.1262 122.423 24.2589 122.274 24.359 122.086C24.459 121.898 24.5091 121.693 24.5091 121.472C24.5091 121.247 24.459 121.041 24.359 120.855C24.2589 120.669 24.1262 120.521 23.9607 120.413C23.7952 120.304 23.6125 120.25 23.4124 120.25C23.2123 120.25 23.0304 120.306 22.8669 120.419C22.7033 120.531 22.5715 120.679 22.4715 120.864C22.3714 121.048 22.3214 121.255 22.3214 121.484ZM28.1511 122.985H27.7586V121.292C27.7586 120.935 27.7067 120.674 27.6028 120.509C27.4989 120.344 27.3353 120.261 27.1122 120.261C26.9582 120.261 26.8062 120.299 26.6562 120.375C26.5061 120.451 26.3743 120.553 26.2608 120.683C26.1472 120.813 26.0655 120.962 26.0154 121.129V122.985H25.6229V119.953H25.9808V120.64C26.0616 120.492 26.1674 120.363 26.2983 120.253C26.4291 120.142 26.5773 120.056 26.7427 119.994C26.9082 119.932 27.0794 119.9 27.2565 119.9C27.4219 119.9 27.5624 119.932 27.6778 119.994C27.7933 120.056 27.8856 120.144 27.9549 120.258C28.0242 120.373 28.0742 120.511 28.105 120.672C28.1358 120.833 28.1511 121.012 28.1511 121.21V122.985ZM35.0483 122.985H34.6558V121.292C34.6558 120.938 34.6 120.678 34.4884 120.512C34.3768 120.345 34.2113 120.261 33.992 120.261C33.7649 120.261 33.5619 120.343 33.383 120.506C33.2041 120.669 33.078 120.878 33.0049 121.134V122.985H32.6124V121.292C32.6124 120.935 32.5585 120.674 32.4508 120.509C32.343 120.344 32.1776 120.261 31.9544 120.261C31.7312 120.261 31.5292 120.341 31.3483 120.5C31.1674 120.659 31.0404 120.869 30.9673 121.129V122.985H30.5748V119.953H30.9327V120.64C31.0597 120.403 31.2223 120.221 31.4205 120.093C31.6186 119.965 31.8389 119.9 32.0814 119.9C32.3315 119.9 32.5335 119.972 32.6874 120.116C32.8414 120.259 32.9356 120.448 32.9703 120.68C33.1088 120.424 33.2752 120.23 33.4696 120.098C33.6639 119.966 33.8842 119.9 34.1305 119.9C34.2998 119.9 34.4431 119.932 34.5605 119.994C34.6779 120.056 34.7722 120.144 34.8434 120.258C34.9145 120.373 34.9665 120.511 34.9992 120.672C35.0319 120.833 35.0483 121.012 35.0483 121.21V122.985ZM35.6944 122.112C35.6944 121.922 35.7483 121.758 35.8561 121.62C35.9638 121.483 36.1129 121.376 36.3034 121.3C36.4939 121.225 36.7142 121.187 36.9643 121.187C37.1105 121.187 37.2625 121.198 37.4203 121.222C37.5781 121.245 37.7185 121.28 37.8417 121.326V121.07C37.8417 120.814 37.7666 120.611 37.6166 120.459C37.4665 120.308 37.2587 120.232 36.9932 120.232C36.8315 120.232 36.6728 120.262 36.517 120.322C36.3611 120.383 36.1985 120.471 36.0292 120.587L35.8791 120.308C36.0754 120.172 36.2678 120.07 36.4564 120.002C36.6449 119.934 36.8373 119.9 37.0336 119.9C37.403 119.9 37.6954 120.007 37.9109 120.221C38.1264 120.434 38.2342 120.729 38.2342 121.105V122.508C38.2342 122.562 38.2457 122.602 38.2688 122.627C38.2919 122.653 38.3285 122.667 38.3785 122.671V122.985C38.3362 122.989 38.2996 122.993 38.2688 122.997C38.238 123.001 38.1996 122.997 38.1996 122.997C38.1033 122.993 38.0302 122.962 37.9802 122.904C37.9302 122.846 37.9032 122.784 37.8994 122.718L37.8936 122.496C37.7589 122.671 37.5839 122.806 37.3684 122.901C37.1529 122.996 36.9335 123.043 36.7103 123.043C36.5179 123.043 36.3438 123.002 36.188 122.918C36.0321 122.835 35.9109 122.722 35.8243 122.581C35.7377 122.439 35.6944 122.283 35.6944 122.112ZM37.7089 122.345C37.7512 122.291 37.784 122.238 37.807 122.188C37.8301 122.137 37.8417 122.093 37.8417 122.054V121.612C37.7108 121.561 37.5752 121.522 37.4347 121.495C37.2943 121.468 37.1529 121.455 37.0105 121.455C36.7296 121.455 36.5025 121.511 36.3294 121.623C36.1562 121.736 36.0696 121.889 36.0696 122.083C36.0696 122.196 36.0985 122.301 36.1562 122.4C36.2139 122.499 36.2986 122.581 36.4102 122.645C36.5218 122.709 36.6526 122.741 36.8027 122.741C36.9912 122.741 37.1673 122.704 37.3308 122.63C37.4944 122.557 37.6204 122.461 37.7089 122.345ZM41.6685 122.985H41.276V121.292C41.276 120.935 41.2241 120.674 41.1202 120.509C41.0163 120.344 40.8527 120.261 40.6295 120.261C40.4756 120.261 40.3236 120.299 40.1735 120.375C40.0235 120.451 39.8917 120.553 39.7781 120.683C39.6646 120.813 39.5828 120.962 39.5328 121.129V122.985H39.1403V119.953H39.4982V120.64C39.579 120.492 39.6848 120.363 39.8157 120.253C39.9465 120.142 40.0947 120.056 40.2601 119.994C40.4256 119.932 40.5968 119.9 40.7738 119.9C40.9393 119.9 41.0798 119.932 41.1952 119.994C41.3107 120.056 41.403 120.144 41.4723 120.258C41.5415 120.373 41.5916 120.511 41.6224 120.672C41.6531 120.833 41.6685 121.012 41.6685 121.21V122.985ZM42.3205 122.112C42.3205 121.922 42.3744 121.758 42.4821 121.62C42.5898 121.483 42.739 121.376 42.9294 121.3C43.1199 121.225 43.3402 121.187 43.5904 121.187C43.7366 121.187 43.8886 121.198 44.0464 121.222C44.2041 121.245 44.3446 121.28 44.4677 121.326V121.07C44.4677 120.814 44.3927 120.611 44.2426 120.459C44.0925 120.308 43.8847 120.232 43.6192 120.232C43.4576 120.232 43.2989 120.262 43.143 120.322C42.9872 120.383 42.8246 120.471 42.6553 120.587L42.5052 120.308C42.7014 120.172 42.8938 120.07 43.0824 120.002C43.271 119.934 43.4634 119.9 43.6596 119.9C44.029 119.9 44.3215 120.007 44.537 120.221C44.7525 120.434 44.8602 120.729 44.8602 121.105V122.508C44.8602 122.562 44.8718 122.602 44.8949 122.627C44.918 122.653 44.9545 122.667 45.0045 122.671V122.985C44.9622 122.989 44.9257 122.993 44.8949 122.997C44.8641 123.001 44.8256 122.997 44.8256 122.997C44.7294 122.993 44.6563 122.962 44.6063 122.904C44.5562 122.846 44.5293 122.784 44.5255 122.718L44.5197 122.496C44.385 122.671 44.2099 122.806 43.9944 122.901C43.7789 122.996 43.5596 123.043 43.3364 123.043C43.144 123.043 42.9698 123.002 42.814 122.918C42.6582 122.835 42.5369 122.722 42.4504 122.581C42.3638 122.439 42.3205 122.283 42.3205 122.112ZM44.335 122.345C44.3773 122.291 44.41 122.238 44.4331 122.188C44.4562 122.137 44.4677 122.093 44.4677 122.054V121.612C44.3369 121.561 44.2012 121.522 44.0608 121.495C43.9203 121.468 43.7789 121.455 43.6365 121.455C43.3556 121.455 43.1286 121.511 42.9554 121.623C42.7823 121.736 42.6957 121.889 42.6957 122.083C42.6957 122.196 42.7245 122.301 42.7823 122.4C42.84 122.499 42.9246 122.581 43.0362 122.645C43.1478 122.709 43.2787 122.741 43.4287 122.741C43.6173 122.741 43.7933 122.704 43.9569 122.63C44.1204 122.557 44.2465 122.461 44.335 122.345ZM46.9728 123.026C46.7688 123.026 46.5802 122.983 46.4071 122.898C46.2339 122.813 46.0848 122.697 45.9597 122.552C45.8347 122.406 45.7375 122.24 45.6682 122.054C45.599 121.868 45.5643 121.676 45.5643 121.478C45.5643 121.264 45.598 121.064 45.6654 120.875C45.7327 120.687 45.8289 120.519 45.954 120.372C46.079 120.224 46.2262 120.109 46.3955 120.026C46.5649 119.942 46.7534 119.9 46.9612 119.9C47.219 119.9 47.4432 119.966 47.6337 120.098C47.8242 120.23 47.9848 120.393 48.1156 120.587V119.953H48.4677V122.997C48.4677 123.276 48.4014 123.512 48.2686 123.704C48.1358 123.896 47.9569 124.041 47.7318 124.138C47.5067 124.235 47.2614 124.283 46.9958 124.283C46.6534 124.283 46.3763 124.221 46.1646 124.097C45.953 123.973 45.7798 123.806 45.6452 123.596L45.8876 123.404C46.0069 123.594 46.1656 123.736 46.3638 123.829C46.562 123.922 46.7727 123.969 46.9958 123.969C47.1921 123.969 47.372 123.933 47.5355 123.861C47.6991 123.789 47.8299 123.682 47.928 123.538C48.0262 123.395 48.0752 123.214 48.0752 122.997V122.397C47.9598 122.588 47.802 122.74 47.6019 122.854C47.4018 122.969 47.1921 123.026 46.9728 123.026ZM47.0824 122.694C47.2017 122.694 47.3162 122.673 47.4259 122.63C47.5355 122.588 47.6366 122.53 47.7289 122.459C47.8213 122.387 47.8982 122.306 47.9598 122.217C48.0214 122.128 48.0598 122.037 48.0752 121.943V121.006C48.0175 120.859 47.9348 120.728 47.827 120.613C47.7193 120.499 47.5971 120.41 47.4605 120.346C47.3239 120.282 47.1825 120.25 47.0362 120.25C46.8669 120.25 46.7159 120.286 46.5831 120.357C46.4504 120.429 46.3388 120.524 46.2483 120.643C46.1579 120.761 46.0877 120.894 46.0377 121.041C45.9876 121.189 45.9626 121.336 45.9626 121.484C45.9626 121.647 45.9915 121.801 46.0492 121.946C46.1069 122.092 46.1868 122.222 46.2888 122.336C46.3907 122.451 46.51 122.539 46.6466 122.601C46.7832 122.663 46.9285 122.694 47.0824 122.694ZM50.6899 123.043C50.4744 123.043 50.2743 123.002 50.0896 122.918C49.9049 122.835 49.7452 122.72 49.6105 122.575C49.4758 122.429 49.371 122.262 49.2959 122.071C49.2209 121.881 49.1834 121.678 49.1834 121.46C49.1834 121.177 49.2478 120.917 49.3768 120.68C49.5057 120.444 49.6836 120.255 49.9107 120.113C50.1377 119.971 50.3955 119.9 50.6842 119.9C50.9805 119.9 51.2392 119.972 51.4605 120.116C51.6818 120.259 51.8559 120.449 51.9829 120.683C52.1099 120.918 52.1734 121.175 52.1734 121.455C52.1734 121.486 52.1734 121.516 52.1734 121.545C52.1734 121.574 52.1676 121.612 52.1676 121.612H49.5932C49.6124 121.829 49.6731 122.022 49.775 122.191C49.877 122.36 50.0098 122.493 50.1733 122.592C50.3369 122.691 50.5148 122.741 50.7072 122.741C50.9035 122.741 51.0892 122.69 51.2643 122.59C51.4393 122.489 51.5615 122.357 51.6308 122.194L51.9713 122.287C51.9098 122.43 51.8155 122.56 51.6885 122.677C51.5615 122.793 51.4124 122.883 51.2412 122.947C51.0699 123.011 50.8862 123.043 50.6899 123.043ZM49.5817 121.326H51.804C51.7886 121.105 51.7299 120.911 51.6279 120.744C51.5259 120.578 51.3932 120.447 51.2296 120.352C51.0661 120.257 50.8862 120.209 50.6899 120.209C50.4937 120.209 50.3147 120.257 50.1531 120.352C49.9915 120.447 49.8597 120.579 49.7577 120.747C49.6557 120.916 49.5971 121.109 49.5817 121.326ZM57.3105 122.985H56.918V121.292C56.918 120.938 56.8622 120.678 56.7506 120.512C56.639 120.345 56.4735 120.261 56.2542 120.261C56.0271 120.261 55.8241 120.343 55.6452 120.506C55.4663 120.669 55.3402 120.878 55.2671 121.134V122.985H54.8746V121.292C54.8746 120.935 54.8207 120.674 54.713 120.509C54.6052 120.344 54.4398 120.261 54.2166 120.261C53.9934 120.261 53.7914 120.341 53.6105 120.5C53.4296 120.659 53.3027 120.869 53.2295 121.129V122.985H52.837V119.953H53.1949V120.64C53.3219 120.403 53.4845 120.221 53.6827 120.093C53.8808 119.965 54.1011 119.9 54.3436 119.9C54.5937 119.9 54.7957 119.972 54.9496 120.116C55.1036 120.259 55.1978 120.448 55.2325 120.68C55.371 120.424 55.5374 120.23 55.7318 120.098C55.9261 119.966 56.1464 119.9 56.3927 119.9C56.562 119.9 56.7053 119.932 56.8227 119.994C56.9401 120.056 57.0344 120.144 57.1056 120.258C57.1767 120.373 57.2287 120.511 57.2614 120.672C57.2941 120.833 57.3105 121.012 57.3105 121.21V122.985ZM59.4978 123.043C59.2823 123.043 59.0822 123.002 58.8975 122.918C58.7128 122.835 58.5531 122.72 58.4184 122.575C58.2837 122.429 58.1789 122.262 58.1038 122.071C58.0288 121.881 57.9913 121.678 57.9913 121.46C57.9913 121.177 58.0557 120.917 58.1846 120.68C58.3135 120.444 58.4915 120.255 58.7186 120.113C58.9456 119.971 59.2034 119.9 59.492 119.9C59.7883 119.9 60.0471 119.972 60.2684 120.116C60.4897 120.259 60.6638 120.449 60.7908 120.683C60.9178 120.918 60.9813 121.175 60.9813 121.455C60.9813 121.486 60.9813 121.516 60.9813 121.545C60.9813 121.574 60.9755 121.612 60.9755 121.612H58.4011C58.4203 121.829 58.4809 122.022 58.5829 122.191C58.6849 122.36 58.8176 122.493 58.9812 122.592C59.1447 122.691 59.3227 122.741 59.5151 122.741C59.7114 122.741 59.897 122.69 60.0721 122.59C60.2472 122.489 60.3694 122.357 60.4387 122.194L60.7792 122.287C60.7177 122.43 60.6234 122.56 60.4964 122.677C60.3694 122.793 60.2203 122.883 60.049 122.947C59.8778 123.011 59.6941 123.043 59.4978 123.043ZM58.3895 121.326H60.6118C60.5964 121.105 60.5378 120.911 60.4358 120.744C60.3338 120.578 60.201 120.447 60.0375 120.352C59.874 120.257 59.6941 120.209 59.4978 120.209C59.3016 120.209 59.1226 120.257 58.961 120.352C58.7994 120.447 58.6676 120.579 58.5656 120.747C58.4636 120.916 58.4049 121.109 58.3895 121.326ZM64.1731 122.985H63.7806V121.292C63.7806 120.935 63.7287 120.674 63.6248 120.509C63.5209 120.344 63.3573 120.261 63.1341 120.261C62.9802 120.261 62.8282 120.299 62.6781 120.375C62.5281 120.451 62.3963 120.553 62.2827 120.683C62.1692 120.813 62.0874 120.962 62.0374 121.129V122.985H61.6449V119.953H62.0028V120.64C62.0836 120.492 62.1894 120.363 62.3203 120.253C62.4511 120.142 62.5992 120.056 62.7647 119.994C62.9302 119.932 63.1014 119.9 63.2784 119.9C63.4439 119.9 63.5844 119.932 63.6998 119.994C63.8152 120.056 63.9076 120.144 63.9769 120.258C64.0461 120.373 64.0962 120.511 64.1269 120.672C64.1577 120.833 64.1731 121.012 64.1731 121.21V122.985ZM66.4817 122.84C66.4509 122.851 66.4028 122.873 66.3374 122.904C66.2719 122.935 66.193 122.962 66.1007 122.985C66.0083 123.009 65.9083 123.02 65.8005 123.02C65.6889 123.02 65.5841 122.999 65.486 122.956C65.3878 122.914 65.3099 122.849 65.2522 122.761C65.1945 122.674 65.1656 122.566 65.1656 122.438V120.267H64.75V119.953H65.1656V118.928H65.5581V119.953H66.2508V120.267H65.5581V122.328C65.5658 122.436 65.6052 122.518 65.6764 122.572C65.7476 122.626 65.8294 122.654 65.9218 122.654C66.0295 122.654 66.1276 122.635 66.2161 122.598C66.3046 122.561 66.3778 122.52 66.3778 122.52L66.4817 122.84ZM70.0945 123.043C69.8444 123.043 69.6202 122.978 69.422 122.846C69.2239 122.714 69.067 122.551 68.9516 122.357V124.225H68.5591V119.953H68.9112V120.541C69.0305 120.351 69.1902 120.196 69.3903 120.078C69.5904 119.96 69.804 119.9 70.031 119.9C70.2388 119.9 70.4293 119.944 70.6024 120.031C70.7756 120.119 70.9257 120.236 71.0527 120.384C71.1797 120.531 71.2787 120.699 71.3499 120.887C71.4211 121.075 71.4567 121.27 71.4567 121.472C71.4567 121.755 71.4 122.016 71.2864 122.255C71.1729 122.493 71.0142 122.685 70.8102 122.828C70.6063 122.972 70.3677 123.043 70.0945 123.043ZM69.9848 122.694C70.1503 122.694 70.2984 122.66 70.4293 122.592C70.5601 122.525 70.6727 122.432 70.7669 122.316C70.8612 122.2 70.9334 122.069 70.9834 121.923C71.0334 121.778 71.0584 121.627 71.0584 121.472C71.0584 121.309 71.0305 121.154 70.9747 121.006C70.9189 120.859 70.8391 120.729 70.7352 120.616C70.6313 120.504 70.512 120.415 70.3773 120.349C70.2426 120.283 70.0964 120.25 69.9386 120.25C69.8386 120.25 69.7347 120.269 69.6269 120.308C69.5192 120.347 69.4163 120.402 69.3181 120.474C69.22 120.546 69.1382 120.626 69.0728 120.715C69.0074 120.805 68.967 120.9 68.9516 121.001V121.932C69.0132 122.075 69.0959 122.204 69.1998 122.319C69.3037 122.433 69.424 122.525 69.5606 122.592C69.6972 122.66 69.8386 122.694 69.9848 122.694ZM72.1952 118.736H72.5877V122.298C72.5877 122.45 72.6147 122.549 72.6686 122.595C72.7224 122.642 72.7878 122.665 72.8648 122.665C72.9341 122.665 73.0033 122.657 73.0726 122.642C73.1419 122.626 73.2015 122.611 73.2515 122.595L73.3208 122.915C73.2477 122.946 73.1582 122.972 73.0524 122.991C72.9466 123.011 72.8552 123.02 72.7782 123.02C72.6012 123.02 72.4598 122.968 72.354 122.863C72.2481 122.758 72.1952 122.615 72.1952 122.432V118.736ZM73.5631 122.112C73.5631 121.922 73.617 121.758 73.7247 121.62C73.8324 121.483 73.9816 121.376 74.172 121.3C74.3625 121.225 74.5828 121.187 74.833 121.187C74.9792 121.187 75.1312 121.198 75.289 121.222C75.4467 121.245 75.5872 121.28 75.7103 121.326V121.07C75.7103 120.814 75.6353 120.611 75.4852 120.459C75.3351 120.308 75.1273 120.232 74.8618 120.232C74.7002 120.232 74.5415 120.262 74.3856 120.322C74.2298 120.383 74.0672 120.471 73.8979 120.587L73.7478 120.308C73.944 120.172 74.1364 120.07 74.325 120.002C74.5136 119.934 74.706 119.9 74.9022 119.9C75.2716 119.9 75.5641 120.007 75.7796 120.221C75.9951 120.434 76.1028 120.729 76.1028 121.105V122.508C76.1028 122.562 76.1144 122.602 76.1375 122.627C76.1606 122.653 76.1971 122.667 76.2471 122.671V122.985C76.2048 122.989 76.1683 122.993 76.1375 122.997C76.1067 123.001 76.0682 122.997 76.0682 122.997C75.972 122.993 75.8989 122.962 75.8489 122.904C75.7988 122.846 75.7719 122.784 75.7681 122.718L75.7623 122.496C75.6276 122.671 75.4525 122.806 75.237 122.901C75.0215 122.996 74.8022 123.043 74.579 123.043C74.3866 123.043 74.2124 123.002 74.0566 122.918C73.9008 122.835 73.7795 122.722 73.693 122.581C73.6064 122.439 73.5631 122.283 73.5631 122.112ZM75.5776 122.345C75.6199 122.291 75.6526 122.238 75.6757 122.188C75.6988 122.137 75.7103 122.093 75.7103 122.054V121.612C75.5795 121.561 75.4438 121.522 75.3034 121.495C75.1629 121.468 75.0215 121.455 74.8791 121.455C74.5982 121.455 74.3712 121.511 74.198 121.623C74.0248 121.736 73.9383 121.889 73.9383 122.083C73.9383 122.196 73.9671 122.301 74.0249 122.4C74.0826 122.499 74.1672 122.581 74.2788 122.645C74.3904 122.709 74.5213 122.741 74.6713 122.741C74.8599 122.741 75.0359 122.704 75.1995 122.63C75.363 122.557 75.4891 122.461 75.5776 122.345ZM78.4288 122.84C78.398 122.851 78.3499 122.873 78.2845 122.904C78.219 122.935 78.1402 122.962 78.0478 122.985C77.9554 123.009 77.8554 123.02 77.7476 123.02C77.636 123.02 77.5312 122.999 77.4331 122.956C77.3349 122.914 77.257 122.849 77.1993 122.761C77.1416 122.674 77.1127 122.566 77.1127 122.438V120.267H76.6971V119.953H77.1127V118.928H77.5052V119.953H78.1979V120.267H77.5052V122.328C77.5129 122.436 77.5524 122.518 77.6235 122.572C77.6947 122.626 77.7765 122.654 77.8689 122.654C77.9766 122.654 78.0747 122.635 78.1632 122.598C78.2517 122.561 78.3249 122.52 78.3249 122.52L78.4288 122.84ZM79.1212 122.985V120.267H78.7056V119.953H79.1212V119.871C79.1212 119.623 79.1568 119.41 79.228 119.231C79.2992 119.053 79.4011 118.916 79.5339 118.821C79.6667 118.726 79.8235 118.678 80.0043 118.678C80.1236 118.678 80.2391 118.696 80.3507 118.731C80.4623 118.766 80.5585 118.812 80.6393 118.87L80.5181 119.155C80.468 119.113 80.4026 119.08 80.3218 119.057C80.241 119.033 80.1602 119.022 80.0794 119.022C79.8985 119.022 79.759 119.093 79.6609 119.237C79.5628 119.381 79.5137 119.588 79.5137 119.86V119.953H80.3449V120.267H79.5137V122.985H79.1212ZM82.1279 123.043C81.9124 123.043 81.7133 123.002 81.5305 122.918C81.3477 122.835 81.19 122.72 81.0572 122.575C80.9244 122.429 80.8215 122.263 80.7484 122.074C80.6753 121.886 80.6387 121.687 80.6387 121.478C80.6387 121.261 80.6753 121.058 80.7484 120.87C80.8215 120.681 80.9254 120.515 81.0601 120.369C81.1948 120.224 81.3535 120.109 81.5363 120.026C81.7191 119.942 81.9182 119.9 82.1337 119.9C82.3492 119.9 82.5474 119.942 82.7282 120.026C82.9091 120.109 83.0669 120.224 83.2016 120.369C83.3363 120.515 83.4402 120.681 83.5133 120.87C83.5864 121.058 83.6229 121.261 83.6229 121.478C83.6229 121.687 83.5864 121.886 83.5133 122.074C83.4402 122.263 83.3372 122.429 83.2045 122.575C83.0717 122.72 82.9139 122.835 82.7311 122.918C82.5483 123.002 82.3473 123.043 82.1279 123.043ZM81.037 121.484C81.037 121.709 81.0861 121.913 81.1842 122.098C81.2823 122.282 81.4141 122.428 81.5796 122.534C81.7451 122.641 81.9278 122.694 82.1279 122.694C82.328 122.694 82.5108 122.64 82.6763 122.531C82.8418 122.423 82.9745 122.274 83.0746 122.086C83.1746 121.898 83.2247 121.693 83.2247 121.472C83.2247 121.247 83.1746 121.041 83.0746 120.855C82.9745 120.669 82.8418 120.521 82.6763 120.413C82.5108 120.304 82.328 120.25 82.1279 120.25C81.9278 120.25 81.746 120.306 81.5825 120.419C81.4189 120.531 81.2871 120.679 81.1871 120.864C81.087 121.048 81.037 121.255 81.037 121.484ZM85.8393 120.302C85.5776 120.31 85.3477 120.384 85.1495 120.523C84.9513 120.663 84.8118 120.855 84.731 121.099V122.985H84.3385V119.953H84.7079V120.68C84.8118 120.467 84.9494 120.294 85.1207 120.162C85.2919 120.03 85.4737 119.957 85.6661 119.941C85.7046 119.937 85.7383 119.935 85.7671 119.935C85.796 119.935 85.8393 119.941 85.8393 119.941V120.302ZM90.8954 122.985H90.5029V121.292C90.5029 120.938 90.4471 120.678 90.3355 120.512C90.2239 120.345 90.0585 120.261 89.8391 120.261C89.6121 120.261 89.4091 120.343 89.2302 120.506C89.0512 120.669 88.9252 120.878 88.8521 121.134V122.985H88.4596V121.292C88.4596 120.935 88.4057 120.674 88.298 120.509C88.1902 120.344 88.0247 120.261 87.8015 120.261C87.5784 120.261 87.3763 120.341 87.1955 120.5C87.0146 120.659 86.8876 120.869 86.8145 121.129V122.985H86.422V119.953H86.7799V120.64C86.9069 120.403 87.0694 120.221 87.2676 120.093C87.4658 119.965 87.6861 119.9 87.9285 119.9C88.1787 119.9 88.3807 119.972 88.5346 120.116C88.6885 120.259 88.7828 120.448 88.8175 120.68C88.956 120.424 89.1224 120.23 89.3167 120.098C89.5111 119.966 89.7314 119.9 89.9777 119.9C90.147 119.9 90.2903 119.932 90.4077 119.994C90.5251 120.056 90.6193 120.144 90.6905 120.258C90.7617 120.373 90.8137 120.511 90.8464 120.672C90.8791 120.833 90.8954 121.012 90.8954 121.21V122.985Z" fill="#4E888F"/>
</g>
<g id="Clip path group">
<mask id="mask0_100_1906" style="mask-type:luminance" maskUnits="userSpaceOnUse" x="23" y="9" width="55" height="63">
<g id="SvgjsClipPath1010">
<path id="Vector_4" d="M23.7754 9.7168H77.2242V71.9508H23.7754V9.7168Z" fill="white"/>
</g>
</mask>
<g mask="url(#mask0_100_1906)">
<g id="Group_4">
<g id="Clip path group_2">
<mask id="mask1_100_1906" style="mask-type:luminance" maskUnits="userSpaceOnUse" x="23" y="9" width="55" height="63">
<g id="SvgjsClipPath1008">
<path id="Vector_5" d="M23.7754 9.7168H77.2242V71.9508H23.7754V9.7168Z" fill="white"/>
</g>
</mask>
<g mask="url(#mask1_100_1906)">
<g id="Group_5">
<path id="Vector_6" d="M48.6766 24.7445L48.4406 24.607L43.874 21.9486L43.1347 21.5183L40.0828 19.7419L39.8419 19.6016L39.7958 19.5747L38.2841 18.6947L36.6813 17.7613L32.2528 20.3393C29.4762 21.9552 26.8403 23.4893 23.7754 25.275V56.3926C26.8403 58.1783 29.4762 59.7126 32.2528 61.3285L35.7703 63.3754V32.7892C35.7703 32.4607 35.9441 32.1572 36.2262 31.993C38.7575 30.5188 40.9465 29.2446 43.1355 27.9706C44.92 26.9306 46.706 25.8923 48.6766 24.7445ZM37.5938 48.3477C39.9324 49.7099 41.9916 50.9084 44.0471 52.1048C46.1026 53.3011 48.1599 54.4985 50.5001 55.8614C53.565 54.0758 56.2012 52.5415 58.9779 50.9254L63.4064 48.3477V33.3199L58.9779 30.7423C56.2017 29.1263 53.5645 27.5915 50.5001 25.8062C48.1614 27.1682 46.1024 28.3667 44.0471 29.563C41.9917 30.7594 39.934 31.957 37.5938 33.3197V48.3477ZM72.7294 22.6584C69.8409 20.977 67.0993 19.3817 63.8627 17.4958L58.9786 14.6528C56.2019 13.0367 53.5657 11.5024 50.5009 9.7168C48.1607 11.0797 46.1042 12.2766 44.0478 13.4736C42.2624 14.5129 40.4771 15.5515 38.5058 16.6996L39.1988 17.1041L44.0478 19.9269C46.2361 21.2008 48.4258 22.4751 50.9569 23.9492C54.2184 25.8494 56.9771 27.4551 59.8902 29.1506L64.7748 31.9939C65.0569 32.1581 65.2307 32.4617 65.2307 32.7901V47.286L67.0897 46.2034L67.2673 46.1L67.8975 45.7323L72.73 42.9189L77.2258 40.3021V25.2757L72.7294 22.6584ZM64.7745 49.6746L59.8895 52.5181C56.9763 54.2135 54.2182 55.8191 50.9564 57.7193C50.6743 57.8836 50.3267 57.8836 50.0446 57.7193C47.5137 56.245 45.3247 54.9709 43.1357 53.697C41.3504 52.6579 39.5651 51.6191 37.5942 50.4712V64.4372C39.9344 65.7999 41.9906 66.9969 44.0474 68.194C46.1042 69.391 48.1603 70.5877 50.5005 71.9506C53.5654 70.165 56.2015 68.6307 58.9783 67.0146L63.8627 64.1716C67.099 62.286 69.8405 60.6904 72.7291 59.0091L77.2249 56.3923V42.4261L73.6412 44.5124C70.7519 46.1934 68.0108 47.7889 64.7745 49.6746Z" fill="#4E888F"/>
</g>
</g>
</g>
</g>
</g>
</g>
</g>
</g>
<defs>
<clipPath id="clip0_100_1906">
<rect width="101" height="134" fill="white"/>
</clipPath>
</defs>
</svg>
